<?xml version="1.0" encoding="UTF-8"?>
<svg id="Layer_1" data-name="Layer 1" xmlns="http://www.w3.org/2000/svg" viewBox="0 0 120 120">
  <defs>
    <style>
      .cls-1 {
        fill: #219ed9;
      }

      .cls-2 {
        fill: #f68e4b;
      }

      .cls-3 {
        fill: #c4e7f0;
      }
    </style>
  </defs>
  <g>
    <path class="cls-1" d="M31.11,55.91c-.16.87-2.57,6.91-3.06,7.7-1.02,1.65-2.92.95-2.96-.84,1.08-2.39,1.79-5.48,3.01-7.75.26-.49.68-1.14,1.27-1.25,1.3-.23,1.95.98,1.74,2.14Z"/>
    <path class="cls-1" d="M93.95,62.15c-.15-.7-2.9-6.94-3.34-7.62-1.14-1.76-3.3-.67-2.92,1.19l3.67,8.15c1.41.99,2.96.05,2.59-1.72ZM93.95,62.15c-.15-.7-2.9-6.94-3.34-7.62-1.14-1.76-3.3-.67-2.92,1.19l3.67,8.15c1.41.99,2.96.05,2.59-1.72ZM93.95,62.15c-.15-.7-2.9-6.94-3.34-7.62-1.14-1.76-3.3-.67-2.92,1.19l3.67,8.15c1.41.99,2.96.05,2.59-1.72ZM93.95,62.15c-.15-.7-2.9-6.94-3.34-7.62-1.14-1.76-3.3-.67-2.92,1.19l3.67,8.15c1.41.99,2.96.05,2.59-1.72ZM93.95,62.15c-.15-.7-2.9-6.94-3.34-7.62-1.14-1.76-3.3-.67-2.92,1.19l3.67,8.15c1.41.99,2.96.05,2.59-1.72ZM93.95,62.15c-.15-.7-2.9-6.94-3.34-7.62-1.14-1.76-3.3-.67-2.92,1.19l3.67,8.15c1.41.99,2.96.05,2.59-1.72ZM93.95,62.15c-.15-.7-2.9-6.94-3.34-7.62-1.14-1.76-3.3-.67-2.92,1.19l3.67,8.15c1.41.99,2.96.05,2.59-1.72ZM93.95,62.15c-.15-.7-2.9-6.94-3.34-7.62-1.14-1.76-3.3-.67-2.92,1.19l3.67,8.15c1.41.99,2.96.05,2.59-1.72ZM93.95,62.15c-.15-.7-2.9-6.94-3.34-7.62-1.14-1.76-3.3-.67-2.92,1.19l3.67,8.15c1.41.99,2.96.05,2.59-1.72ZM93.95,62.15c-.15-.7-2.9-6.94-3.34-7.62-1.14-1.76-3.3-.67-2.92,1.19l3.67,8.15c1.41.99,2.96.05,2.59-1.72ZM106.11,70.55l-10.54-25.01c-.62-1.36-1.79-1.74-3.12-2.1v-21.9c.65-1.45,1.88-2.41,1.75-4.21-.11-1.5-1.79-3.75-3.37-3.75h-16.05v-4.9c0-1.68-.42-3.56-2.07-3.56-7.55,0-17.28.02-25.11.02-2.56,0-2.99,1.89-2.99,2.78v5.67h-16.24c-.07,0-1.07.41-1.23.5-1.12.59-2.11,2.18-2.14,3.45-.04,1.66,1.22,2.64,1.74,4.02v22.4c-1.08-.12-1.98.32-2.79.96-4.04,8.85-7.67,18.05-11.05,27.19.2,1.89,1.2,2.77,2.81,3.53,3.6,1.69,7.82,2.98,11.56,4.41,2.83.07,3.54-2.03,4.55-4.16l2.56,1.22c-1.11,2.76.26,6.2,3.29,6.85-.49,3.47,1.61,6.44,5.21,6.51-.18,3.46,2.84,5.64,6.14,5.2.39,3.6,3.74,5.67,7.17,4.37.55-.21,1.66-1.06,2-1.07.26-.02,1.69,1.13,2.51,1.26,2.55.43,4.5-.52,5.91-2.62,2.55,1.32,5.92.38,7.03-2.33,3.66,1.74,7.66-.98,7.5-4.98,3.51-.46,5.7-3.12,4.84-6.72-.34-1.4-2.38-3.59-2.53-4.6-.25-1.71,3.01-2.81,4.19-3.32.94,2.96,2.28,4.99,5.71,3.88,2.26-.73,9.08-3.59,10.96-4.8,1.35-.87,2.42-2.55,1.8-4.18ZM47.68,8.68s.3-.34.39-.38h23.05c.09.04.39.35.39.38v4.9h-23.83v-4.9ZM28.83,16.74h61.52c.98.48.79,1.05.26,1.82-3.36,3.57-6.16,8.11-9.5,11.64-.25.26-1.18,1.25-1.44,1.25h-14.89v-4.71c0-.76-1.58-2.24-2.34-2.46-.91-.26-4.97-.25-5.84.05-.82.29-2.2,1.76-2.2,2.6v4.52h-14.89c-.25,0-1.02-.83-1.25-1.06-3.46-3.58-6.4-8.39-9.82-12.08-.33-.59-.33-1.36.39-1.56ZM77.89,52.64c.09.56,1.08,2.12.84,2.45-.77.35-1.56.69-2.38.9-5.6,1.39-8.4-3.51-14.83-1-.47.18-1.64.98-1.86,1.01-.18.03-2.62-1.23-3.33-1.4-5.57-1.35-7.56,2.11-11.82,1.82-1.5-.1-2.89-.81-4.33-1.15-.19-.21.79-2.2.87-2.68.36-1.95-.54-3.27-2.22-4.14-2.61-1.35-6.07-2.28-8.84-3.37v-19.79l6.91,8.17c.59.45,2.3,1.25,2.98,1.25h14.51v4.52c0,.84,1.38,2.31,2.2,2.6.94.33,5.01.31,5.98,0,.72-.23,2.2-1.69,2.2-2.41v-4.71h14.51c.75,0,2.51-.76,3.08-1.34l7.01-8.27v19.41c-2.84,1.36-6.2,2.37-8.97,3.81-1.77.92-2.88,2.17-2.51,4.32ZM57.48,38.66v-11.14c0-.05.23-.19.29-.29h3.65s.29.27.29.29v11.14s-.27.29-.29.29h-3.65s-.29-.27-.29-.29ZM27.98,76.61l-.39.2c-3.71-1.18-7.31-2.85-10.99-4.2l-.45-.52,10.03-25.05,11.85,4.71-10.05,24.86ZM36.34,74.41c-.37-.07-3.39-1.36-3.41-1.54l5.92-14.9c2.3.99,4.67,1.74,7.21,1.55,3.16-.24,5.26-2.49,8.62-2.1,3.12.36,7.41,5,10.13,6.97,1.87,1.36,3.94,2.48,5.72,3.9-.09,2.12-2.95,2.54-4.66,2.34-2.73-.32-4.43-2.47-6.89-3.3-7.04-2.37-12.5,1.32-18.34,4.63-1.01.58-2.9,2.05-3.78,2.39-.24.09-.25.11-.51.06ZM54.59,92.76l1.89,3.36c-3.69,3.43-6.63-1.86-1.89-3.36ZM60.28,96.39c-.52-.63-3.28-5.32-3.44-5.98-.17-.71-.02-1.48.51-2.01.71-.71,2.09-.62,2.83.02.46.41,3.69,5.83,3.8,6.4.38,1.97-2.26,3.32-3.7,1.57ZM70.63,94.28c-.78,1.05-2.28,1.05-3.16.11-.45-.48-3.75-6.23-3.83-6.74-.14-.96.23-2.11,1.28-2.35.97-.22,1.63,0,2.27.72.77.87,2.7,4.23,3.27,5.38.54,1.1,1.02,1.75.17,2.88ZM74.48,91.99c-.71-.68-3.9-6.18-4.42-7.3-.25-.53-.49-.95-.4-1.55.11-.66.72-1.54,1.41-1.69.73-.16,1.54,0,2.08.53.59.56,3.95,6.3,4.42,7.3,1.3,2.78-1.38,4.36-3.09,2.71ZM79.67,86.61c-.46-.39-2.85-4.48-3.2-5.25-.63-1.36-.69-3,1.14-3.36.69-.13,1.49.11,1.98.63.4.43,3.07,4.92,3.3,5.54.83,2.16-1.65,3.78-3.22,2.45ZM81.49,76.03c-.19.14-1-.59-1.29-.71-2.8-1.22-6.07.02-6.99,2.99-2.96-.34-5.72.8-6.53,3.85-1.83-.08-3.31.05-4.69,1.37-.35.33-1.04,1.48-1.18,1.52-.33.09-1.5-.38-2.07-.37-2.21.04-4.01,1.5-4.81,3.47-.17.42-.19,1.24-.35,1.48-.16.24-4.7,2.81-5.08,2.89-1.27.26-2.47-.44-2.56-1.78-.09-1.28.75-1.74,1.68-2.36,3.28-2.22,7.2-3.99,10.54-6.18,1.23-1.39.1-3.34-1.68-2.64l-13.12,7.65c-2.13.61-3.48-1.9-1.93-3.47l10.27-6.06c1.44-1.22.23-3.31-1.58-2.73l-10.43,6.09c-1.75.45-3.11-1.18-2.44-2.82.33-.8,2.98-2.37,3.83-2.9,3.78-2.32,9.69-5.94,14.16-5.58,5.23.42,6.69,4.73,13.07,3.99,4.1-.48,7.66-5.35,3.64-8.4-2.01-1.52-4.46-2.75-6.58-4.37-1.03-.79-2.11-1.64-3.09-2.49-.2-.17-.28-.2-.01-.38.87-.58,3.07-.75,4.11-.64,1.74.17,3.06,1.2,4.69,1.65,3.36.91,5.96.13,9.07-1.1l6.15,14.98c-1.76.58-3.96,1.3-4.8,3.08ZM102.97,71.95l-11.2,4.77-.43-.15-10.25-25.04c3.46-1.39,6.94-3.31,10.41-4.6.35-.13.74-.42,1.06-.12,3.72,8.13,7.04,16.49,10.58,24.72l-.16.43ZM87.69,55.72l3.67,8.15c1.41.99,2.96.05,2.59-1.72-.15-.7-2.9-6.94-3.34-7.62-1.14-1.76-3.3-.67-2.92,1.19ZM93.95,62.15c-.15-.7-2.9-6.94-3.34-7.62-1.14-1.76-3.3-.67-2.92,1.19l3.67,8.15c1.41.99,2.96.05,2.59-1.72ZM93.95,62.15c-.15-.7-2.9-6.94-3.34-7.62-1.14-1.76-3.3-.67-2.92,1.19l3.67,8.15c1.41.99,2.96.05,2.59-1.72ZM93.95,62.15c-.15-.7-2.9-6.94-3.34-7.62-1.14-1.76-3.3-.67-2.92,1.19l3.67,8.15c1.41.99,2.96.05,2.59-1.72ZM93.95,62.15c-.15-.7-2.9-6.94-3.34-7.62-1.14-1.76-3.3-.67-2.92,1.19l3.67,8.15c1.41.99,2.96.05,2.59-1.72ZM93.95,62.15c-.15-.7-2.9-6.94-3.34-7.62-1.14-1.76-3.3-.67-2.92,1.19l3.67,8.15c1.41.99,2.96.05,2.59-1.72ZM93.95,62.15c-.15-.7-2.9-6.94-3.34-7.62-1.14-1.76-3.3-.67-2.92,1.19l3.67,8.15c1.41.99,2.96.05,2.59-1.72ZM93.95,62.15c-.15-.7-2.9-6.94-3.34-7.62-1.14-1.76-3.3-.67-2.92,1.19l3.67,8.15c1.41.99,2.96.05,2.59-1.72ZM93.95,62.15c-.15-.7-2.9-6.94-3.34-7.62-1.14-1.76-3.3-.67-2.92,1.19l3.67,8.15c1.41.99,2.96.05,2.59-1.72ZM93.95,62.15c-.15-.7-2.9-6.94-3.34-7.62-1.14-1.76-3.3-.67-2.92,1.19l3.67,8.15c1.41.99,2.96.05,2.59-1.72ZM93.95,62.15c-.15-.7-2.9-6.94-3.34-7.62-1.14-1.76-3.3-.67-2.92,1.19l3.67,8.15c1.41.99,2.96.05,2.59-1.72Z"/>
    <path class="cls-3" d="M90.62,18.56c-3.36,3.57-6.16,8.11-9.5,11.64-.25.26-1.18,1.25-1.44,1.25h-14.89v-4.71c0-.76-1.58-2.24-2.34-2.46-.91-.26-4.97-.25-5.84.05-.82.29-2.2,1.76-2.2,2.6v4.52h-14.89c-.25,0-1.02-.83-1.25-1.06-3.46-3.58-6.4-8.39-9.82-12.08-.33-.59-.33-1.36.39-1.56h61.52c.98.48.79,1.05.26,1.82Z"/>
    <path class="cls-1" d="M31.11,55.91c-.16.87-2.57,6.91-3.06,7.7-1.02,1.65-2.92.95-2.96-.84,1.08-2.39,1.79-5.48,3.01-7.75.26-.49.68-1.14,1.27-1.25,1.3-.23,1.95.98,1.74,2.14Z"/>
    <path class="cls-1" d="M91.36,63.87l-3.67-8.15c-.37-1.86,1.78-2.94,2.92-1.19.44.68,3.19,6.92,3.34,7.62.37,1.77-1.18,2.71-2.59,1.72Z"/>
    <path class="cls-3" d="M71.51,8.68v4.9h-23.83v-4.9s.3-.34.39-.38h23.05c.09.04.39.35.39.38Z"/>
    <path class="cls-3" d="M61.71,27.51v11.14s-.27.29-.29.29h-3.65s-.29-.27-.29-.29v-11.14c0-.05.23-.19.29-.29h3.65s.29.27.29.29Z"/>
    <path class="cls-1" d="M31.11,55.91c-.16.87-2.57,6.91-3.06,7.7-1.02,1.65-2.92.95-2.96-.84,1.08-2.39,1.79-5.48,3.01-7.75.26-.49.68-1.14,1.27-1.25,1.3-.23,1.95.98,1.74,2.14Z"/>
    <path class="cls-1" d="M91.36,63.87l-3.67-8.15c-.37-1.86,1.78-2.94,2.92-1.19.44.68,3.19,6.92,3.34,7.62.37,1.77-1.18,2.71-2.59,1.72Z"/>
  </g>
  <path class="cls-2" d="M106.69,111.51c.29.34.48,1.42.39,1.94-.42,2.66-4.03,1.01-5.25.04-1.65-1.32-2.38-3.38-4.66-3.25-3,.16-4.24,5.02-8.7,4.61-4.07-.37-5.8-6.72-9.79-3.83-2.56,1.85-3.3,4.15-6.86,3.83-3.55-.32-5.05-4.97-8.13-4.6-2.72.33-4.08,5.1-8.52,4.6-4.17-.47-5.61-7.07-9.99-3.6-2.4,1.91-3.32,3.93-6.66,3.6-3.39-.34-4.87-4.83-7.75-4.61-2.99.22-4.23,5.02-8.7,4.61-3.16-.29-3.95-3.12-6.14-4.24-1.26-.64-3.13.09-3.04-2.42.1-3.01,3.56-1.59,4.87-.64,2.47,1.78,3.46,5.17,6.93,2.65,2.96-2.15,4.07-5.02,8.23-3.41,3.14,1.21,4.61,6.24,8.42,3.41,2.85-2.12,3.86-4.87,7.92-3.51,2.19.73,3.27,3.09,4.88,3.92,4.43,2.27,6.08-6.24,12.02-3.76,3.12,1.3,4.45,5.99,8.16,3.43,3.21-2.21,4.5-5.45,8.89-3.23,2.73,1.38,4.05,5.56,7.42,3.53,2.53-1.53,3.23-4.44,6.93-4.22,3.32.2,4.14,3.12,6.33,4.24.76.39,2.32.35,2.79.91Z"/>
</svg>