<?xml version="1.0" encoding="UTF-8"?>
<svg id="Layer_1" data-name="Layer 1" xmlns="http://www.w3.org/2000/svg" viewBox="0 0 120 120">
  <defs>
    <style>
      .cls-1, .cls-2 {
        fill: #219ed9;
      }

      .cls-3 {
        fill: #f68e4b;
      }

      .cls-4 {
        fill: #c4e7f0;
      }

      .cls-2 {
        stroke: #219ed9;
        stroke-miterlimit: 10;
        stroke-width: .5px;
      }
    </style>
  </defs>
  <g>
    <path class="cls-1" d="M58.98,33.07c-16.56.86-25.7,19.98-15.68,33.36,8.88,11.86,27.15,10.9,34.65-1.88,8.37-14.26-2.48-32.34-18.97-31.48ZM76.17,61.99c-6.97,14.28-28.24,12.85-33.27-2.2-3.53-10.56,3.47-22.64,14.71-23.79,14.46-1.47,25.01,12.76,18.56,25.99Z"/>
    <path class="cls-2" d="M83.65,67.23c.4-1.07,1.04-2.07,1.46-3.13,2.17-5.48,2.55-11.55,1.02-17.24-.58-2.17-1.53-4.19-2.49-6.21,14.39,5.67,29.13-7.48,24.93-22.48-1.69-6.05-6.75-11.11-12.81-12.81-14.99-4.19-28.17,10.52-22.48,24.93-1.07-.4-2.07-1.04-3.13-1.46-6.55-2.59-13.78-2.61-20.33,0-1.06.42-2.06,1.06-3.13,1.46C52.46,15.74,38.86.75,23.67,5.52c-6.48,2.03-11.21,7.31-12.58,13.96-2.99,14.52,11.32,26.65,25.25,21.16-.4,1.07-1.04,2.07-1.46,3.13-2.61,6.57-2.6,13.75,0,20.33.7,1.78,2.62,4.28,2.15,6.07-.47,1.78-1.38.68-2.69.82-.94.1-1.62.6-2.34,1.14-4.62,3.46-8.88,9.63-13.46,13.37-7.29,5.55-1.9,15.81,5.97,12.81.87-.33,1.64-.9,2.29-1.57,4.65-4.75,10.61-9.47,14.72-14.46.76-.92,1.47-1.97,1.46-3.23,0-1.01-.94-1.7.78-2.15,1.79-.47,4.29,1.45,6.07,2.15,6.54,2.59,13.79,2.59,20.33,0,1.06-.42,2.06-1.06,3.13-1.46-5.69,14.38,7.49,29.12,22.48,24.93,6.05-1.7,11.11-6.75,12.81-12.81,4.2-15-10.53-28.17-24.93-22.49ZM101.07,35.28c-.3.45-2.42,1.76-3.01,2.07-4.58,2.41-10.17,2.41-14.77.04-.68-.35-2.6-1.51-3.06-2.02-.58-.64.02-1.71.33-2.42,1.59-3.68,5.14-6.14,9.12-6.52,3.69-.35,7.32,1.29,9.61,4.15.69.86,2.45,3.69,1.78,4.7ZM90.63,14.52c4.9-.07,6.32,7.04,1.57,8.76-6.64,2.41-8.6-8.66-1.57-8.76ZM82.5,9.67c12.23-7.24,26.99,3.92,23.5,17.64-.43,1.71-1.31,3.89-2.59,5.13-1.16-3.54-4.33-6.58-7.82-7.82-.17-.24.98-1.26,1.21-1.62,2.02-3.12,1.3-7.15-1.5-9.53-5.96-5.05-14.65,1.68-11.22,8.88.43.9,1.16,1.41,1.54,2.27-3.65,1.29-6.42,4.31-7.92,7.82-5.37-7.47-3.11-18.08,4.81-22.76ZM26.89,7.63c13.9-2.11,23.58,13.46,15.32,24.8-1.3-3.55-4.24-6.55-7.82-7.82.37-.86,1.11-1.37,1.54-2.27,3.39-7.13-5.08-13.84-11.12-8.97-2.88,2.32-3.65,6.47-1.6,9.62.23.36,1.38,1.38,1.21,1.62-3.61,1.27-6.53,4.29-7.92,7.82-7.01-9.42-1.13-23.04,10.39-24.8ZM27.8,23.28c-4.68-1.7-3.39-8.68,1.44-8.76,7.12-.11,5.29,11.21-1.44,8.76ZM34.38,38.38c-4.59,1.49-11.6.73-15.14-2.83-.96-.96-.13-2.37.45-3.45,1.67-3.1,5.09-5.35,8.6-5.68,4.14-.39,8.36,1.67,10.48,5.24.4.67,1.54,2.83,1.2,3.51-.41.81-4.58,2.89-5.59,3.22ZM39.95,79.74l-15.74,15.73c-3.86,2.23-7.97-1.91-5.75-5.75l15.86-15.81c.46-.14.93-.09,1.34.15.26.15,4.06,3.94,4.2,4.2.27.47.28.97.08,1.47ZM51.15,76.57c-2.81-1.08-4.54-3.01-7.82-2.45-.84.14-2.18,1.36-2.79.95-.2-.13-1.79-1.78-1.83-1.91-.08-.32.99-1.84,1.11-2.55.52-3.08-.85-4.12-1.94-6.57-6.67-14.92,3.1-32.83,19.54-34.29,11.81-1.04,22.73,6.06,25.94,17.54,5.42,19.36-13.44,36.47-32.21,29.28ZM98.84,98.15c-5.08,3.04-11.25,3.06-16.34.05-.46-.27-2.15-1.39-2.38-1.73-.47-.69.5-2.53.89-3.24,1.9-3.45,5.67-5.56,9.58-5.56,4.15,0,8.19,2.35,9.97,6.15,1.23,2.61.59,2.95-1.72,4.33ZM89.66,75.88c6.46-1.1,7.39,8.32,1.49,8.92-5.9.61-6.73-8.03-1.49-8.92ZM105.19,90.82c-.15.36-1.29,2.7-1.41,2.8-.32.27-.34-.1-.43-.25-.36-.56-.59-1.36-.97-1.96-1.64-2.6-4.01-4.45-6.8-5.71,4.55-4.17,2.06-12.18-4.2-12.62-7.3-.51-10.8,7.76-5.58,12.71-3.79,1.24-6.5,4.26-8.11,7.82-6.22-8.32-2.05-20.88,7.77-24.1,13.08-4.29,25.11,8.54,19.74,21.3Z"/>
    <g>
      <path class="cls-1" d="M19.27,45c.2.16.45.74.46,1.02-1.67,8.39-.57,17.24,2.94,25,.41.91,1.96,3.34,2.09,3.99.31,1.58-1.38,2.47-2.59,1.01-1.74-2.11-3.84-8.16-4.55-10.89-1.38-5.3-2.15-13.55-.78-18.85.3-1.17,1.2-2.26,2.43-1.27Z"/>
      <path class="cls-1" d="M23.54,77.12c-.58,0-1.18-.31-1.64-.87-1.81-2.19-3.91-8.27-4.62-11.04-1.42-5.46-2.14-13.75-.78-19.04.25-.95.77-1.65,1.41-1.86.36-.12.93-.15,1.6.4h0c.29.24.58.92.6,1.28-1.64,8.29-.61,17.09,2.91,24.86.16.35.5.94.86,1.57.71,1.24,1.17,2.08,1.26,2.5.17.88-.19,1.7-.91,2.04-.22.1-.45.15-.68.15ZM18.34,44.98c-.07,0-.14.01-.2.03-.39.13-.76.66-.93,1.35-1.33,5.16-.61,13.3.78,18.67.68,2.63,2.76,8.67,4.48,10.75.53.64,1.1.69,1.45.52.41-.2.61-.68.5-1.23-.06-.33-.71-1.45-1.17-2.27-.37-.65-.72-1.26-.89-1.63-3.58-7.91-4.64-16.87-2.97-25.22-.02-.11-.23-.57-.34-.66-.25-.2-.49-.31-.71-.31Z"/>
    </g>
    <g>
      <path class="cls-1" d="M39.41,90.44c.34-.1.65-.11.98.03,7.75,3.83,16.65,4.83,25.16,3.39,1.08-.18,3.38-1.08,4.23-.73,1.29.53,1.13,2.12-.23,2.65-3.44,1.35-10.35,1.66-14.08,1.46-4-.22-12.91-1.94-16.17-4.2-1.12-.77-1.25-2.21.11-2.61Z"/>
      <path class="cls-1" d="M57.78,97.67c-.85,0-1.64-.02-2.33-.06-3.76-.21-12.94-1.9-16.36-4.26-.73-.5-1.13-1.29-1.01-2,.1-.6.54-1.06,1.22-1.26h0c.45-.14.84-.12,1.23.05,7.38,3.64,16.24,4.84,24.96,3.36.31-.05.75-.18,1.23-.3,1.23-.34,2.5-.69,3.21-.4.7.29,1.12.88,1.11,1.57,0,.76-.53,1.45-1.34,1.77-2.86,1.12-8.03,1.54-11.91,1.54ZM39.88,90.73c-.11,0-.23.02-.37.06h0c-.41.12-.65.35-.7.67-.07.43.21.94.7,1.28,3.07,2.13,11.65,3.89,15.98,4.13,3.74.2,10.55-.1,13.93-1.43.53-.21.87-.64.88-1.09,0-.39-.24-.71-.66-.88-.46-.19-1.77.17-2.73.43-.49.13-.95.26-1.3.32-8.87,1.5-17.89.28-25.39-3.42-.11-.05-.22-.07-.34-.07Z"/>
    </g>
    <path class="cls-1" d="M57.22,10.2c2.56-.15,8.1-.17,10.45.58,1.67.53,1.53,2.55-.17,2.82-3.81-.71-7.65-.82-11.51-.52-1.21.09-4.46,1.23-4.79-.5-.32-1.71,1.22-1.82,2.47-2.02,1.09-.18,2.45-.3,3.55-.36Z"/>
    <g>
      <path class="cls-1" d="M101.19,45.18c.85-.25,1.63.1,1.92.93.37,1.04.62,4.34.68,5.57.12,2.34.03,7.8-.64,9.93-.52,1.65-2.54,1.54-2.82-.17.71-3.81.82-7.65.52-11.51-.09-1.16-1.16-4.31.34-4.75Z"/>
      <path class="cls-1" d="M101.73,63.16s-.08,0-.11,0c-.84-.06-1.48-.71-1.64-1.66v-.06s0-.06,0-.06c.66-3.57.83-7.31.52-11.41-.02-.25-.09-.6-.16-.99-.3-1.56-.71-3.7.76-4.14h0c1.05-.31,2.02.17,2.37,1.16.41,1.16.66,4.77.71,5.68.12,2.33.04,7.85-.66,10.06-.32,1-1.1,1.44-1.78,1.44ZM100.71,61.44c.13.68.58.95.95.98.36.01.91-.2,1.14-.92.64-2.02.74-7.37.63-9.8-.06-1.31-.32-4.5-.66-5.47-.22-.63-.79-.9-1.47-.7-.83.25-.48,2.08-.25,3.3.08.42.15.79.17,1.07.32,4.15.15,7.92-.51,11.54Z"/>
    </g>
    <path class="cls-1" d="M58.98,33.07c-16.56.86-25.7,19.98-15.68,33.36,8.88,11.86,27.15,10.9,34.65-1.88,8.37-14.26-2.48-32.34-18.97-31.48ZM76.17,61.99c-6.97,14.28-28.24,12.85-33.27-2.2-3.53-10.56,3.47-22.64,14.71-23.79,14.46-1.47,25.01,12.76,18.56,25.99Z"/>
    <path class="cls-4" d="M39.95,79.74l-15.74,15.73c-3.86,2.23-7.97-1.91-5.75-5.75l15.86-15.81c.46-.14.93-.09,1.34.15.26.15,4.06,3.94,4.2,4.2.27.47.28.97.08,1.47Z"/>
    <path class="cls-4" d="M27.8,23.28c-4.68-1.7-3.39-8.68,1.44-8.76,7.12-.11,5.29,11.21-1.44,8.76Z"/>
    <path class="cls-4" d="M92.2,23.28c-6.64,2.41-8.6-8.66-1.57-8.76,4.9-.07,6.32,7.04,1.57,8.76Z"/>
    <path class="cls-4" d="M91.16,84.8c-5.9.61-6.73-8.03-1.49-8.92,6.46-1.1,7.39,8.32,1.49,8.92Z"/>
    <path class="cls-1" d="M58.98,33.07c-16.56.86-25.7,19.98-15.68,33.36,8.88,11.86,27.15,10.9,34.65-1.88,8.37-14.26-2.48-32.34-18.97-31.48ZM76.17,61.99c-6.97,14.28-28.24,12.85-33.27-2.2-3.53-10.56,3.47-22.64,14.71-23.79,14.46-1.47,25.01,12.76,18.56,25.99Z"/>
  </g>
  <path class="cls-3" d="M108.49,112.42c.28.3.47,1.25.39,1.7-.42,2.34-3.99.88-5.19.03-1.63-1.16-2.35-2.97-4.61-2.86-2.96.14-4.19,4.41-8.6,4.05-4.02-.32-5.74-5.9-9.68-3.36-2.53,1.63-3.26,3.65-6.78,3.36-3.51-.28-4.99-4.37-8.04-4.04-2.69.29-4.04,4.48-8.42,4.05-4.13-.41-5.55-6.22-9.87-3.16-2.37,1.68-3.28,3.45-6.58,3.16-3.35-.3-4.82-4.24-7.67-4.05-2.96.2-4.18,4.41-8.61,4.05-3.12-.25-3.91-2.74-6.07-3.72-1.25-.56-3.09.08-3.01-2.13.1-2.65,3.52-1.4,4.82-.56,2.44,1.56,3.42,4.54,6.85,2.33,2.93-1.89,4.03-4.41,8.14-3,3.1,1.07,4.56,5.48,8.33,3,2.82-1.86,3.82-4.28,7.83-3.09,2.17.64,3.24,2.72,4.83,3.44,4.38,1.99,6.01-5.48,11.88-3.3,3.09,1.15,4.4,5.26,8.07,3.02,3.17-1.94,4.45-4.79,8.79-2.84,2.7,1.22,4.01,4.89,7.34,3.1,2.51-1.35,3.19-3.9,6.85-3.71,3.28.17,4.09,2.74,6.26,3.73.76.34,2.3.31,2.76.8Z"/>
</svg>