<?xml version="1.0" encoding="UTF-8"?>
<svg id="Layer_1" data-name="Layer 1" xmlns="http://www.w3.org/2000/svg" viewBox="0 0 120 120">
  <defs>
    <style>
      .cls-1 {
        fill: #219ed9;
      }

      .cls-2 {
        fill: #f68e4b;
      }

      .cls-3 {
        fill: #c4e7f0;
      }
    </style>
  </defs>
  <g>
    <path class="cls-1" d="M108.7,35.32c-.44-5.89-4.39-10.85-9.63-13.27,7.97-6.39,1.8-19.15-8.25-16.71-7.62,1.85-9.83,12.04-3.5,16.71-3.55,1.72-6.8,4.43-8.29,8.17-.29.2-2.4-1.11-2.68-1.43-2.02-2.26,1.16-9.49-3.94-10.11-3.6-.44-8.06.34-11.76,0-1.32.17-1.68,1.82-.76,2.7l6.02,4.08c.12,2.33-.2,4.44.52,6.7,1.76,5.5,6.77,6.76,11.07,9.72v10.3h-30.79v-14.34c0-1.66-2.82-3.38-4.42-2.99-.6-5.75-4.48-10.43-9.63-12.79,6.1-4.47,4.26-14.32-2.89-16.55-10.17-3.18-17.11,9.95-8.86,16.55-5.24,2.43-9.2,7.4-9.63,13.27-.37,5.17.29,10.77,0,15.99.49,2.82,2.39,3.94,5.1,4.14h87.01c2.62,0,4.91-1.42,5.29-4.14-.3-5.21.39-10.83,0-15.99ZM26.47,8.15c8.35-.49,9.11,12.25.9,12.84-8.66.62-9.32-12.34-.9-12.84ZM18.62,52.17h-3.37c-.09,0-.86-.92-.86-1.06v-8.37h4.23v9.43ZM20.67,35.27c-1.69.81-1.98,2.5-2.05,4.2h-4.23c.1-1.33-.13-2.82,0-4.13.54-5.37,4.87-10.03,10.15-11.02,6.82-1.27,13.82,3.58,14.48,10.54h-17.23c-.11,0-.94.33-1.12.42ZM43.64,51.89s-.27.29-.29.29h-21.46v-14.05h21.46s.29.27.29.29v13.48ZM92.68,8.15c8.34-.65,9.35,12.17,1.09,12.84-8.59.71-9.49-12.19-1.09-12.84ZM105.61,51.11c0,.23-.84,1.21-1.24,1.07-3.93-.27-8.26.33-12.14,0-1.57-.13-1.84-1.49-.81-2.57,2.62-.52,5.94.28,8.48-.17.71-.13,1.49-.9,1.49-1.59v-5.1h4.24v8.37ZM105.61,39.47h-5.87c-.52,0-1.64.86-1.64,1.44v5.29h-5.87c-.16,0-1.34.26-1.58.34-2.25.73-3.48,3.41-2.75,5.63h-7.12v-11.45c0-.32-.51-.92-.78-1.14-2.99-2.47-8.17-3.37-10.1-7.22-1.5-2.98-.32-5.39-.96-8.1-.25-1.09-2.12-1.6-2.79-2.49h5.87c.75,0,.42,5.12.5,5.85.2,1.73,1.32,3.25,2.69,4.24.69.5,4,2.44,4.66,2.38,1.43-.14,1.56-2.04,2.09-3.11,4-8.04,14.95-9.48,20.76-2.52,1.22,1.46,2.89,4.84,2.89,6.73v4.13Z"/>
    <path class="cls-1" d="M89.83,58.81c-1.2-1.11-2.2-1.99-3.95-1.83-1.07.1-5.28,2.48-5.84,3.4-.23.39-.23.97-.55,1.24-1.52,1.28-4.91,2.09-6.87,1.89-4.15-.41-5.05-1.91-9.84-.37-.73.23-3.45,1.74-3.65,1.74-.15,0-2.21-1.05-2.83-1.21-3.5-.87-7.26.24-10.81-.15-.95-.11-4.5-1.28-5.06-1.96-.23-.27-.25-.81-.47-1.17-.5-.81-4.56-3.18-5.5-3.34-2.17-.38-3.66,1.07-5.06,2.55-4.14,4.35-7.17,11.85-6.13,17.89.36,2.11.92,2.53,2.74,3.42,1.06.52,2.72,1.3,3.87,1.11.48-.07.71-.44,1.31-.34.4.07,5.57,2.78,6.1,3.16.26.18,1.87,1.77,1.88,1.91,0,.09-.41,1.01-.47,1.4-.28,1.91.57,3.81,2.27,4.75.42.23,1.45.45,1.51.51.08.09.07,1.7.27,2.33.64,1.98,2.81,3.23,4.84,3.02.38-.04.88-.39,1.14-.33.2.04,1.22,1.35,1.79,1.66.75.42,1.8.67,2.66.61.5-.04,1.39-.45,1.7-.4.11.02.37.59.6.79,1.49,1.32,3.29,1.74,5.16.9.55-.24,1.66-1.43,1.78-1.44.14,0,1.74.81,2.33.89,1.67.22,3.53-.42,4.39-1.92.25-.41.46-1.45.52-1.5.07-.06,1.38-.2,1.83-.38,1.09-.4,2.22-1.5,2.58-2.62.13-.4.15-1.38.2-1.44.05-.06,1.05-.26,1.39-.43,1.18-.57,2.07-1.46,2.44-2.75.14-.48.13-1.58.19-1.64.05-.05.95-.13,1.34-.3,1.71-.73,2.41-2.31,2.69-4.04,1.67-.32,5.05-2.82,6.48-2.94.37-.03.84.44,1.33.52,1.11.18,4.37-1.13,5.27-1.83.84-.65,1.17-1.71,1.34-2.7,1.09-6.31-2.29-14.36-6.91-18.66ZM29.01,78.73l-2.5-1.11c-1.12-6.5,1.89-13.71,7.18-17.53l3.21,1.8c-4.84,4.07-7.96,10.47-7.89,16.84ZM41.8,88.55c.13-.52,1.97-3.69,2.37-4.19.23-.29.36-.51.77-.59,1.17-.25,1.99.76,1.7,1.9-.1.4-1.91,3.57-2.22,3.94-1.09,1.32-3,.48-2.61-1.06ZM48.23,94.97c-1.03,1.31-3.01.35-2.59-1.23.16-.58,2.93-5.36,3.41-6.03.56-.77,1.51-1.38,2.42-.65.55.45.46,1.19.26,1.78-.28.8-2.94,5.41-3.5,6.13ZM57.02,91.63c-.07.29-2.75,4.95-3.02,5.26-.58.68-1.57.92-2.23.26-.27-.26-.55-1.11-.36-1.49.84-1.06,2.7-5.55,3.76-5.88,1.2-.38,2.17.62,1.84,1.84ZM62.28,94.37c-.06.35-2.16,3.96-2.47,4.28-1.23,1.27-2.83.32-2.46-1.31.06-.26,2.32-4.16,2.52-4.32.96-.79,2.64.05,2.42,1.34ZM66.3,98.13c-.54.53-1.79.09-2.24-.43.25-.28.78-1.79,1.04-1.81.67-.05,2.05,1.4,1.21,2.24ZM77.42,85.67c-1.65-.15-4.86-3.14-6.64-3.58-.98-.25-2.03.73-1.92,1.73.19,1.83,6.17,3.27,6.35,5.04.12,1.23-.94,1.82-2.06,1.47-1.85-.57-4.59-3.12-6.4-3.61-1.81-.48-2.79,1.53-1.54,2.69,1.12,1.04,4.89,2.3,5.66,3.38.72,1-.17,2.26-1.25,2.03-1.27-.28-3.31-2.15-4.67-2.6-.77-1.56-2.18-2.51-3.92-2.69-.36-.04-.81.23-1.03.1-.14-.09-.63-1.13-.88-1.44-.53-.66-1.54-1.3-2.37-1.47-.57-.12-1.61.02-1.94-.18-.15-.09-.73-1.28-1.07-1.62-.69-.69-2.1-1.32-3.07-1.38-.31-.01-.98.25-1.04.2-.07-.06-.52-1.14-.88-1.54-1.71-1.96-4.77-2.11-6.65-.29-.39.38-1.07,1.91-1.43,1.83-.15-.04-1.21-1.24-1.58-1.5-1.97-1.38-4.83-2.35-6.96-3.53-.04-5.48,2.6-10.62,6.52-14.32.33-.16,2.41,1.05,2.97,1.27,1.03.39,2.22.76,3.3.93,3.83.61,7.31-.69,11.04.22l-6.99,4.46c-2.34,1.92-1.78,4.68.46,6.4,5.61,4.29,10.17-2.96,15.81-1.77,2.45.52,9.3,4.82,11.75,6.34.9.56,2.13.94,2.07,2.17-.05,1.05-.69,1.35-1.65,1.26ZM81.11,81.44c-.08,0-.84-.87-1.22-1.13-2.78-1.87-6.75-4.09-9.75-5.65-3.93-2.05-6.14-2.79-10.52-1.22-2.44.88-6.59,4.14-8.77,1.26-.38-.51-.42-.63.11-1.06,1.86-1.49,5.53-3.51,7.71-4.8,3.16-1.88,5.38-3.54,9.32-3.2,1.38.13,2.68.81,4.06.95,3.39.34,6.18-.54,9.03-2.29,4.17,3.41,6.71,8.81,6.8,14.22-1.27.17-5.91,3.07-6.77,2.93ZM93.69,76.33c-.02.27-.13,1.24-.24,1.39-.19.26-2.05.73-2.46,1.01.04-6.38-3.04-12.78-7.89-16.84.61-.35,2.95-1.94,3.45-1.74.73.3,2.34,2.2,2.89,2.9,3.02,3.85,4.6,8.34,4.25,13.28Z"/>
    <path class="cls-3" d="M27.38,20.99c-8.66.62-9.32-12.34-.9-12.84,8.35-.49,9.11,12.25.9,12.84Z"/>
    <path class="cls-3" d="M93.77,20.99c-8.59.71-9.49-12.19-1.09-12.84,8.34-.65,9.35,12.17,1.09,12.84Z"/>
    <path class="cls-3" d="M93.69,76.33c-.02.27-.13,1.24-.24,1.39-.19.26-2.05.73-2.46,1.01.04-6.38-3.04-12.78-7.89-16.84.61-.35,2.95-1.94,3.45-1.74.73.3,2.34,2.2,2.89,2.9,3.02,3.85,4.6,8.34,4.25,13.28Z"/>
  </g>
  <path class="cls-2" d="M108.39,112.01c.3.3.49,1.25.41,1.71-.44,2.35-4.18.89-5.44.03-1.71-1.17-2.46-2.98-4.83-2.88-3.11.14-4.39,4.43-9.02,4.08-4.22-.32-6.01-5.93-10.15-3.38-2.65,1.63-3.42,3.67-7.1,3.38-3.68-.28-5.23-4.39-8.42-4.07-2.82.29-4.23,4.51-8.83,4.07-4.33-.41-5.82-6.25-10.35-3.18-2.49,1.69-3.44,3.47-6.9,3.18s-5.05-4.27-8.04-4.08c-3.1.2-4.39,4.43-9.02,4.08-3.28-.25-4.1-2.76-6.36-3.74-1.31-.57-3.24.08-3.15-2.14.1-2.66,3.69-1.4,5.05-.57,2.56,1.57,3.59,4.56,7.18,2.34,3.07-1.9,4.22-4.43,8.53-3.01,3.25,1.07,4.78,5.51,8.73,3.02,2.96-1.87,4-4.31,8.21-3.1,2.27.65,3.39,2.73,5.06,3.46,4.59,2,6.3-5.51,12.46-3.32,3.24,1.15,4.61,5.29,8.45,3.03,3.33-1.95,4.67-4.82,9.22-2.85,2.83,1.22,4.2,4.91,7.69,3.12,2.63-1.35,3.35-3.92,7.18-3.73,3.44.17,4.29,2.75,6.56,3.75.79.35,2.41.31,2.89.8Z"/>
</svg>