<?xml version="1.0" encoding="UTF-8"?>
<svg id="Layer_1" data-name="Layer 1" xmlns="http://www.w3.org/2000/svg" viewBox="0 0 120 120">
  <defs>
    <style>
      .cls-1 {
        fill: #f68e4b;
      }

      .cls-2 {
        fill: #c4e7f0;
      }

      .cls-3 {
        fill: #219ed9;
        stroke: #219ed9;
        stroke-miterlimit: 10;
        stroke-width: .5px;
      }
    </style>
  </defs>
  <path class="cls-1" d="M111.07,112.13c.31.29.52,1.2.43,1.64-.46,2.25-4.41.85-5.74.03-1.81-1.12-2.6-2.86-5.09-2.76-3.28.14-4.64,4.25-9.52,3.91-4.45-.31-6.35-5.69-10.71-3.24-2.8,1.57-3.6,3.51-7.5,3.24-3.88-.27-5.52-4.21-8.89-3.9-2.98.28-4.47,4.32-9.32,3.9-4.57-.4-6.14-5.99-10.92-3.05-2.63,1.62-3.63,3.33-7.28,3.05s-5.33-4.09-8.48-3.91c-3.27.19-4.63,4.25-9.52,3.91-3.46-.24-4.32-2.65-6.72-3.59-1.38-.54-3.42.08-3.33-2.05.11-2.55,3.89-1.35,5.33-.54,2.7,1.51,3.78,4.38,7.58,2.25,3.24-1.82,4.46-4.25,9-2.89,3.43,1.03,5.04,5.29,9.21,2.89,3.12-1.79,4.22-4.13,8.67-2.98,2.4.62,3.58,2.62,5.34,3.32,4.84,1.92,6.65-5.28,13.14-3.18,3.42,1.11,4.86,5.07,8.92,2.91,3.51-1.87,4.93-4.62,9.73-2.73,2.99,1.17,4.43,4.71,8.11,2.99,2.77-1.3,3.53-3.76,7.58-3.57,3.63.17,4.52,2.64,6.93,3.59.84.33,2.54.3,3.05.77Z"/>
  <g>
    <path class="cls-3" d="M21.53,79.81c-.77.06-1.33.7-1.36,1.46-.05,1.1.74,1.27,1.11,2.09.45.99.02,2.5,1.28,2.9,3.68,1.18,1.66-6.68-1.04-6.45ZM30.75,80.88c-.12-.64-1.02-1.15-1.65-1.07-1.87.25-4.17,5.93-1.6,6.5,1.9.42,1.7-1.32,2.04-2.46.34-1.16,1.45-1.64,1.2-2.97ZM73.93,68.21c-.31.06-.89.54-1,.8-.56,1.35.58,1.77.99,2.79.31.79.22,2.07.76,2.53.76.65,2.25.35,2.49-.68.4-1.72-1.1-5.85-3.24-5.44ZM83.29,69c-.11-.26-.69-.74-1-.8-2.31-.44-4.24,4.87-2.88,6.07.55.48,1.57.52,2.13.05.53-.45.46-1.84.82-2.67.44-1.01,1.48-1.34.93-2.65ZM103.64,67.01c-.85-3.07-3.4-9.15-7.54-7.15-4.96,2.39-6.98,16.58-3.69,20.58.9,1.09,2.37,1.69,3.74,1.94.37,1.56-.88,6.51,1.16,6.93,2.99.6,1.48-5.28,1.87-6.93,3.18-.45,4.65-2.5,5.14-5.53.51-3.16.18-6.76-.67-9.85ZM101.04,77.58c-.88,2.53-5.79,2.51-6.72.14-.78-2-.37-7.15.14-9.32.3-1.26,1.71-5.5,3.04-5.75,1.09-.21,2.12,2.16,2.48,3.03,1.19,2.85,2.06,9.04,1.06,11.9ZM30.75,80.88c-.12-.64-1.02-1.15-1.65-1.07-1.87.25-4.17,5.93-1.6,6.5,1.9.42,1.7-1.32,2.04-2.46.34-1.16,1.45-1.64,1.2-2.97ZM21.53,79.81c-.77.06-1.33.7-1.36,1.46-.05,1.1.74,1.27,1.11,2.09.45.99.02,2.5,1.28,2.9,3.68,1.18,1.66-6.68-1.04-6.45ZM103.64,67.01c-.85-3.07-3.4-9.15-7.54-7.15-4.96,2.39-6.98,16.58-3.69,20.58.9,1.09,2.37,1.69,3.74,1.94.37,1.56-.88,6.51,1.16,6.93,2.99.6,1.48-5.28,1.87-6.93,3.18-.45,4.65-2.5,5.14-5.53.51-3.16.18-6.76-.67-9.85ZM101.04,77.58c-.88,2.53-5.79,2.51-6.72.14-.78-2-.37-7.15.14-9.32.3-1.26,1.71-5.5,3.04-5.75,1.09-.21,2.12,2.16,2.48,3.03,1.19,2.85,2.06,9.04,1.06,11.9ZM83.29,69c-.11-.26-.69-.74-1-.8-2.31-.44-4.24,4.87-2.88,6.07.55.48,1.57.52,2.13.05.53-.45.46-1.84.82-2.67.44-1.01,1.48-1.34.93-2.65ZM73.93,68.21c-.31.06-.89.54-1,.8-.56,1.35.58,1.77.99,2.79.31.79.22,2.07.76,2.53.76.65,2.25.35,2.49-.68.4-1.72-1.1-5.85-3.24-5.44ZM21.53,79.81c-.77.06-1.33.7-1.36,1.46-.05,1.1.74,1.27,1.11,2.09.45.99.02,2.5,1.28,2.9,3.68,1.18,1.66-6.68-1.04-6.45ZM30.75,80.88c-.12-.64-1.02-1.15-1.65-1.07-1.87.25-4.17,5.93-1.6,6.5,1.9.42,1.7-1.32,2.04-2.46.34-1.16,1.45-1.64,1.2-2.97ZM73.93,68.21c-.31.06-.89.54-1,.8-.56,1.35.58,1.77.99,2.79.31.79.22,2.07.76,2.53.76.65,2.25.35,2.49-.68.4-1.72-1.1-5.85-3.24-5.44ZM83.29,69c-.11-.26-.69-.74-1-.8-2.31-.44-4.24,4.87-2.88,6.07.55.48,1.57.52,2.13.05.53-.45.46-1.84.82-2.67.44-1.01,1.48-1.34.93-2.65ZM103.64,67.01c-.85-3.07-3.4-9.15-7.54-7.15-4.96,2.39-6.98,16.58-3.69,20.58.9,1.09,2.37,1.69,3.74,1.94.37,1.56-.88,6.51,1.16,6.93,2.99.6,1.48-5.28,1.87-6.93,3.18-.45,4.65-2.5,5.14-5.53.51-3.16.18-6.76-.67-9.85ZM101.04,77.58c-.88,2.53-5.79,2.51-6.72.14-.78-2-.37-7.15.14-9.32.3-1.26,1.71-5.5,3.04-5.75,1.09-.21,2.12,2.16,2.48,3.03,1.19,2.85,2.06,9.04,1.06,11.9ZM30.75,80.88c-.12-.64-1.02-1.15-1.65-1.07-1.87.25-4.17,5.93-1.6,6.5,1.9.42,1.7-1.32,2.04-2.46.34-1.16,1.45-1.64,1.2-2.97ZM21.53,79.81c-.77.06-1.33.7-1.36,1.46-.05,1.1.74,1.27,1.11,2.09.45.99.02,2.5,1.28,2.9,3.68,1.18,1.66-6.68-1.04-6.45ZM103.64,67.01c-.85-3.07-3.4-9.15-7.54-7.15-4.96,2.39-6.98,16.58-3.69,20.58.9,1.09,2.37,1.69,3.74,1.94.37,1.56-.88,6.51,1.16,6.93,2.99.6,1.48-5.28,1.87-6.93,3.18-.45,4.65-2.5,5.14-5.53.51-3.16.18-6.76-.67-9.85ZM101.04,77.58c-.88,2.53-5.79,2.51-6.72.14-.78-2-.37-7.15.14-9.32.3-1.26,1.71-5.5,3.04-5.75,1.09-.21,2.12,2.16,2.48,3.03,1.19,2.85,2.06,9.04,1.06,11.9ZM82.29,68.21c-2.31-.44-4.24,4.87-2.88,6.07.55.48,1.57.52,2.13.05.53-.45.46-1.84.82-2.67.44-1.01,1.48-1.34.93-2.65-.11-.26-.69-.74-1-.8ZM73.93,68.21c-.31.06-.89.54-1,.8-.56,1.35.58,1.77.99,2.79.31.79.22,2.07.76,2.53.76.65,2.25.35,2.49-.68.4-1.72-1.1-5.85-3.24-5.44ZM103.28,31.87c-1.72-.38-5.74-4.62-6.8-6.16-1.43-2.06-3.73-7.47-5.77-8.39-.51-.23-.86-.32-1.42-.37-1.27-.11-4.52-.15-5.7.1-1.44.3-3.91,2.33-2.4,3.81,1.57,1.55,2.19-.72,3.31-.9.78-.12,4.39-.11,4.95.21.82.47,3.57,5.89,4.43,7.14,1.17,1.71,2.6,3.17,4.07,4.61h-8.87c-.55,0-7.44-5.46-8.27-6.28-5.49-5.41-7.67-12.2-11.96-18.15-1-1.39-1.93-2.11-3.7-2.29-2.48-.25-7.47-.22-9.97,0-1.28.11-2.38.59-3.28,1.5-2.69,4.09-4.85,8.53-7.5,12.65-.33.51-2.31,3.47-2.58,3.6-.31.15-.28-.15-.35-.25-1.58-2.2-2.22-5.45-5.42-5.74-1.34-.12-4.8-.14-6,.2-2.53.72-4.89,6.6-6.51,8.85-.98,1.36-5.01,5.48-6.49,5.87-1.08.29-2.93-.09-4.14.05-1.8.2-2.85,1.41-3.49,2.99v60.62c.84,2.05,2.23,3.2,4.48,3.4h93.14c2.22-.09,4.33-1.77,4.49-4.09v-59.24c-.64-5.14-5.2-3.04-8.24-3.72ZM54.48,8.48c3.77-.12,7.68-.28,11.43.09,5.19,8.4,9.22,17.62,17.69,23.34h-47.06l3.19-2.49c6.72-5.63,9.94-13.89,14.76-20.94ZM108.52,94.83c0,.37-.86,1-1.29.9l-12.33-.04c-2.6-3.59-5.21-6.56-9.01-8.94-4.25-2.67-7.03-2.86-11.63-4.13-8.09-2.23-13.27-9.7-12.6-18.1.57-7.17,6.94-12.76,10.36-18.7.1-.11.4-.35.5-.35h4.49c-.67,4.81-1.58,12.44,4.76,13.59.32,1.57-.88,6.79,1.53,6.95,2.65.17,1.38-5.41,1.71-6.95,6.34-1.15,5.43-8.78,4.76-13.59h18.75v49.36ZM80.14,45.3c.28-1.24,1.77-5.89,3.16-6.03.95-.09,1.92,1.98,2.26,2.73.64,1.4,1.13,3.09,1.37,4.61.29,1.87.65,7.46-.8,8.76-1.03.92-4.43.92-5.46,0-1.67-1.48-1-7.97-.52-10.07ZM108.52,42.48h-19.54c-.96-3.07-3.44-7.88-7.36-5.86-2,1.03-3.02,3.88-3.84,5.83-3.09.41-5.96-1.05-8.23,1.65-3.02,3.59-9.34,12.77-10.39,17.13-2.65,10.99,3.87,21.57,14.66,24.43,1.55.41,3.16.58,4.74,1.04,4.91,1.45,9.57,4.8,12.41,9.03h-36.39c-4.32-3.99-9.5-7.28-12.3-12.63-2.62-5.01-3.15-11.25-1.42-16.64.42-1.31,2.15-3.69.87-4.75-2.17-1.81-3.51,2.97-3.91,4.31-2.37,7.96-.65,16.19,4.49,22.63,2.17,2.71,5.08,4.7,7.57,7.08H13.3c-.2,0-.9-.7-.9-.9v-49.36h7.58c-.29,1.18-.72,2.35-.94,3.55-.52,2.88-.76,8.18.7,10.75.87,1.51,2.49,2.45,4.21,2.67.19.22-.14,4.9.06,5.82.35,1.57,2.69,1.39,2.94.04.17-.88-.18-5.62.03-5.86,4.11-.58,5.17-3.8,5.37-7.49.17-3.16-.38-6.5-1.41-9.48h20.04c.11,0,.3.3.3.49.02.83-6.64,8.3-7.43,9.73-.71,1.62.97,3.03,2.38,1.88l7.88-10.17c1.01-2.18-.5-4.77-2.92-4.93h-21.34c-.52-.1-1.65-1.87-2.43-2.35-2.06-1.27-3.93-.25-5.33,1.38-.25.29-.46.98-.52.98h-9.17c.26-2.05-.35-4.94,0-6.88.12-.66.94-.74,1.49-.71h93.34c.44-.06,1.29.21,1.29.71v6.88ZM22.63,47.22c.32-1.03,1.6-4.31,2.68-4.51,1.09-.21,2.12,2.16,2.48,3.03,1.31,3.13,1.66,7.04,1.37,10.41-.26,3.06-2.04,3.65-4.88,3.27-1.78-.24-2.35-1.65-2.51-3.27-.28-2.79.03-6.24.85-8.92ZM96.14,82.38c.37,1.56-.88,6.51,1.16,6.93,2.99.6,1.48-5.28,1.87-6.93,3.18-.45,4.65-2.5,5.14-5.53.51-3.16.18-6.76-.67-9.85-.85-3.07-3.4-9.15-7.54-7.15-4.96,2.39-6.98,16.58-3.69,20.58.9,1.09,2.37,1.69,3.74,1.94ZM94.46,68.4c.3-1.26,1.71-5.5,3.04-5.75,1.09-.21,2.12,2.16,2.48,3.03,1.19,2.85,2.06,9.04,1.06,11.9-.88,2.53-5.79,2.51-6.72.14-.78-2-.37-7.15.14-9.32ZM82.29,68.21c-2.31-.44-4.24,4.87-2.88,6.07.55.48,1.57.52,2.13.05.53-.45.46-1.84.82-2.67.44-1.01,1.48-1.34.93-2.65-.11-.26-.69-.74-1-.8ZM73.93,68.21c-.31.06-.89.54-1,.8-.56,1.35.58,1.77.99,2.79.31.79.22,2.07.76,2.53.76.65,2.25.35,2.49-.68.4-1.72-1.1-5.85-3.24-5.44ZM29.1,79.81c-1.87.25-4.17,5.93-1.6,6.5,1.9.42,1.7-1.32,2.04-2.46.34-1.16,1.45-1.64,1.2-2.97-.12-.64-1.02-1.15-1.65-1.07ZM21.53,79.81c-.77.06-1.33.7-1.36,1.46-.05,1.1.74,1.27,1.11,2.09.45.99.02,2.5,1.28,2.9,3.68,1.18,1.66-6.68-1.04-6.45ZM73.93,68.21c-.31.06-.89.54-1,.8-.56,1.35.58,1.77.99,2.79.31.79.22,2.07.76,2.53.76.65,2.25.35,2.49-.68.4-1.72-1.1-5.85-3.24-5.44ZM83.29,69c-.11-.26-.69-.74-1-.8-2.31-.44-4.24,4.87-2.88,6.07.55.48,1.57.52,2.13.05.53-.45.46-1.84.82-2.67.44-1.01,1.48-1.34.93-2.65ZM103.64,67.01c-.85-3.07-3.4-9.15-7.54-7.15-4.96,2.39-6.98,16.58-3.69,20.58.9,1.09,2.37,1.69,3.74,1.94.37,1.56-.88,6.51,1.16,6.93,2.99.6,1.48-5.28,1.87-6.93,3.18-.45,4.65-2.5,5.14-5.53.51-3.16.18-6.76-.67-9.85ZM101.04,77.58c-.88,2.53-5.79,2.51-6.72.14-.78-2-.37-7.15.14-9.32.3-1.26,1.71-5.5,3.04-5.75,1.09-.21,2.12,2.16,2.48,3.03,1.19,2.85,2.06,9.04,1.06,11.9ZM21.53,79.81c-.77.06-1.33.7-1.36,1.46-.05,1.1.74,1.27,1.11,2.09.45.99.02,2.5,1.28,2.9,3.68,1.18,1.66-6.68-1.04-6.45ZM30.75,80.88c-.12-.64-1.02-1.15-1.65-1.07-1.87.25-4.17,5.93-1.6,6.5,1.9.42,1.7-1.32,2.04-2.46.34-1.16,1.45-1.64,1.2-2.97ZM103.64,67.01c-.85-3.07-3.4-9.15-7.54-7.15-4.96,2.39-6.98,16.58-3.69,20.58.9,1.09,2.37,1.69,3.74,1.94.37,1.56-.88,6.51,1.16,6.93,2.99.6,1.48-5.28,1.87-6.93,3.18-.45,4.65-2.5,5.14-5.53.51-3.16.18-6.76-.67-9.85ZM101.04,77.58c-.88,2.53-5.79,2.51-6.72.14-.78-2-.37-7.15.14-9.32.3-1.26,1.71-5.5,3.04-5.75,1.09-.21,2.12,2.16,2.48,3.03,1.19,2.85,2.06,9.04,1.06,11.9ZM83.29,69c-.11-.26-.69-.74-1-.8-2.31-.44-4.24,4.87-2.88,6.07.55.48,1.57.52,2.13.05.53-.45.46-1.84.82-2.67.44-1.01,1.48-1.34.93-2.65ZM73.93,68.21c-.31.06-.89.54-1,.8-.56,1.35.58,1.77.99,2.79.31.79.22,2.07.76,2.53.76.65,2.25.35,2.49-.68.4-1.72-1.1-5.85-3.24-5.44ZM30.75,80.88c-.12-.64-1.02-1.15-1.65-1.07-1.87.25-4.17,5.93-1.6,6.5,1.9.42,1.7-1.32,2.04-2.46.34-1.16,1.45-1.64,1.2-2.97ZM21.53,79.81c-.77.06-1.33.7-1.36,1.46-.05,1.1.74,1.27,1.11,2.09.45.99.02,2.5,1.28,2.9,3.68,1.18,1.66-6.68-1.04-6.45ZM21.53,79.81c-.77.06-1.33.7-1.36,1.46-.05,1.1.74,1.27,1.11,2.09.45.99.02,2.5,1.28,2.9,3.68,1.18,1.66-6.68-1.04-6.45ZM30.75,80.88c-.12-.64-1.02-1.15-1.65-1.07-1.87.25-4.17,5.93-1.6,6.5,1.9.42,1.7-1.32,2.04-2.46.34-1.16,1.45-1.64,1.2-2.97ZM30.75,80.88c-.12-.64-1.02-1.15-1.65-1.07-1.87.25-4.17,5.93-1.6,6.5,1.9.42,1.7-1.32,2.04-2.46.34-1.16,1.45-1.64,1.2-2.97ZM21.53,79.81c-.77.06-1.33.7-1.36,1.46-.05,1.1.74,1.27,1.11,2.09.45.99.02,2.5,1.28,2.9,3.68,1.18,1.66-6.68-1.04-6.45Z"/>
    <path class="cls-3" d="M22.56,86.26c-1.26-.4-.83-1.91-1.28-2.9-.37-.82-1.16-.99-1.11-2.09.03-.76.59-1.4,1.36-1.46,2.7-.23,4.72,7.64,1.04,6.45Z"/>
    <path class="cls-3" d="M29.54,83.85c-.34,1.15-.14,2.89-2.04,2.46-2.58-.58-.27-6.26,1.6-6.5.63-.08,1.53.43,1.65,1.07.25,1.33-.86,1.81-1.2,2.97Z"/>
    <path class="cls-3" d="M77.17,73.65c-.24,1.03-1.73,1.33-2.49.68-.54-.46-.44-1.74-.76-2.53-.41-1.02-1.56-1.44-.99-2.79.11-.26.69-.74,1-.8,2.14-.41,3.64,3.72,3.24,5.44Z"/>
    <path class="cls-3" d="M83.29,69c.55,1.32-.49,1.64-.93,2.65-.36.83-.29,2.22-.82,2.67-.56.48-1.58.44-2.13-.05-1.36-1.2.57-6.52,2.88-6.07.31.06.89.54,1,.8Z"/>
    <path class="cls-3" d="M103.64,67.01c-.85-3.07-3.4-9.15-7.54-7.15-4.96,2.39-6.98,16.58-3.69,20.58.9,1.09,2.37,1.69,3.74,1.94.37,1.56-.88,6.51,1.16,6.93,2.99.6,1.48-5.28,1.87-6.93,3.18-.45,4.65-2.5,5.14-5.53.51-3.16.18-6.76-.67-9.85ZM101.04,77.58c-.88,2.53-5.79,2.51-6.72.14-.78-2-.37-7.15.14-9.32.3-1.26,1.71-5.5,3.04-5.75,1.09-.21,2.12,2.16,2.48,3.03,1.19,2.85,2.06,9.04,1.06,11.9Z"/>
    <path class="cls-2" d="M22.17,31.91l2.3-2.19c2.47-2.86,3.99-6.35,6.09-9.46.52-.42,4.94-.47,5.57-.21.4.17,3.36,5.07,3.34,5.38-.74.82-1.6,1.58-2.44,2.28-.64.53-5.42,4.19-5.78,4.19h-9.07Z"/>
    <path class="cls-2" d="M86.13,55.38c-1.03.92-4.43.92-5.46,0-1.67-1.48-1-7.97-.52-10.07.28-1.24,1.77-5.89,3.16-6.03.95-.09,1.92,1.98,2.26,2.73.64,1.4,1.13,3.09,1.37,4.61.29,1.87.65,7.46-.8,8.76Z"/>
    <path class="cls-2" d="M29.16,56.15c-.26,3.06-2.04,3.65-4.88,3.27-1.78-.24-2.35-1.65-2.51-3.27-.28-2.79.03-6.24.85-8.92.32-1.03,1.6-4.31,2.68-4.51,1.09-.21,2.12,2.16,2.48,3.03,1.31,3.13,1.66,7.04,1.37,10.41Z"/>
    <path class="cls-3" d="M22.56,86.26c-1.26-.4-.83-1.91-1.28-2.9-.37-.82-1.16-.99-1.11-2.09.03-.76.59-1.4,1.36-1.46,2.7-.23,4.72,7.64,1.04,6.45Z"/>
    <path class="cls-3" d="M29.54,83.85c-.34,1.15-.14,2.89-2.04,2.46-2.58-.58-.27-6.26,1.6-6.5.63-.08,1.53.43,1.65,1.07.25,1.33-.86,1.81-1.2,2.97Z"/>
    <path class="cls-3" d="M103.64,67.01c-.85-3.07-3.4-9.15-7.54-7.15-4.96,2.39-6.98,16.58-3.69,20.58.9,1.09,2.37,1.69,3.74,1.94.37,1.56-.88,6.51,1.16,6.93,2.99.6,1.48-5.28,1.87-6.93,3.18-.45,4.65-2.5,5.14-5.53.51-3.16.18-6.76-.67-9.85ZM101.04,77.58c-.88,2.53-5.79,2.51-6.72.14-.78-2-.37-7.15.14-9.32.3-1.26,1.71-5.5,3.04-5.75,1.09-.21,2.12,2.16,2.48,3.03,1.19,2.85,2.06,9.04,1.06,11.9Z"/>
    <path class="cls-3" d="M77.17,73.65c-.24,1.03-1.73,1.33-2.49.68-.54-.46-.44-1.74-.76-2.53-.41-1.02-1.56-1.44-.99-2.79.11-.26.69-.74,1-.8,2.14-.41,3.64,3.72,3.24,5.44Z"/>
    <path class="cls-3" d="M82.36,71.66c-.36.83-.29,2.22-.82,2.67-.56.48-1.58.44-2.13-.05-1.36-1.2.57-6.52,2.88-6.07.31.06.89.54,1,.8.55,1.32-.49,1.64-.93,2.65Z"/>
    <path class="cls-2" d="M101.04,77.58c-.88,2.53-5.79,2.51-6.72.14-.78-2-.37-7.15.14-9.32.3-1.26,1.71-5.5,3.04-5.75,1.09-.21,2.12,2.16,2.48,3.03,1.19,2.85,2.06,9.04,1.06,11.9Z"/>
  </g>
</svg>