<?xml version="1.0" encoding="UTF-8"?>
<svg id="Layer_1" data-name="Layer 1" xmlns="http://www.w3.org/2000/svg" viewBox="0 0 120 120">
  <defs>
    <style>
      .cls-1 {
        fill: #219ed9;
      }

      .cls-2 {
        fill: #f68e4b;
      }

      .cls-3 {
        fill: #c4e7f0;
      }
    </style>
  </defs>
  <path class="cls-2" d="M93.19,111.93c.2.31.34,1.29.28,1.75-.3,2.41-2.87.91-3.73.03-1.18-1.2-1.69-3.06-3.31-2.95-2.13.14-3.01,4.55-6.18,4.18-2.89-.33-4.12-6.09-6.96-3.47-1.82,1.68-2.34,3.76-4.87,3.47s-3.59-4.51-5.78-4.17c-1.94.3-2.9,4.62-6.05,4.17-2.97-.42-3.99-6.41-7.1-3.26-1.71,1.73-2.36,3.56-4.73,3.26s-3.46-4.38-5.51-4.18c-2.13.2-3.01,4.55-6.18,4.18-2.25-.26-2.81-2.83-4.36-3.84-.9-.58-2.22.08-2.16-2.2.07-2.73,2.53-1.44,3.46-.58,1.76,1.61,2.46,4.68,4.92,2.4,2.11-1.95,2.9-4.55,5.85-3.09,2.23,1.1,3.28,5.66,5.98,3.09,2.03-1.92,2.74-4.42,5.63-3.18,1.56.67,2.33,2.8,3.47,3.55,3.15,2.05,4.32-5.65,8.54-3.4,2.22,1.18,3.16,5.42,5.8,3.11,2.28-2,3.2-4.94,6.32-2.92,1.94,1.25,2.88,5.04,5.27,3.2,1.8-1.39,2.3-4.02,4.92-3.82,2.36.18,2.94,2.82,4.5,3.84.54.35,1.65.32,1.98.83Z"/>
  <g>
    <path class="cls-1" d="M78.14,76.95h-16.49v-3.2c3.8.38,7.49-1.28,8.97-4.93.6-1.48,1.44-4.4-.87-4.67-2.64-.31-5.93-.04-8.1,1.6v-6.3c0-.42,1.48-.27,1.87-.32,19.98-2.59,30.33-25.37,19.07-42.21C71.47.28,46.32,1.28,36.44,18.66c-9.58,16.85,1.05,38.01,20.14,40.48.39.05,1.87-.1,1.87.32v3.1c-2.06-1.64-4.22-2.93-6.92-3.17-1.03-.1-3.82-.19-4.73.02-2.49.56-.37,6,.5,7.41,1.47,2.4,5.35,5.34,8.25,5.34h2.9v4.8h-16.49c-.42,0-1.02.86-1.09,1.31-.15,1-.17,6.24.03,7.14.35,1.57,2.37,1.07,3.55,1.15.69,2.06,2.23,13.01,3.3,13.99.39.35.71.36,1.2.4,7.05.64,15.05-.5,22.2,0,.79.03,1.44-.39,1.64-1.16l2.86-13.23c1.17-.08,3.19.41,3.54-1.15.2-.9.19-6.14.03-7.14-.07-.45-.67-1.31-1.09-1.31ZM67.65,67.36c-.62,2.39-3.26,3.52-5.6,3.2.62-2.39,3.26-3.52,5.6-3.2ZM49.07,62.56c4.26-.47,8.4,2.08,9.19,6.39-4.27.47-8.4-2.08-9.19-6.39ZM63.55,50.96c-.45,1-.19,1.96-.4,3l-1.85-.65-2.74-5.16c-.42-1.75.4-4.01-.62-5.57-.78-1.21-2.31-1.41-3.39-2.21-.26-.2-2.32-2.25-2.39-2.4-.14-.32-.2-2.9-.11-3.26.09-.35,5.43-3.12,6.11-3.67,1.6,1.17,3.21,3.96,5.24,4.29.7.11,1.69-.11,2.25.15.67.31,2.07,1.87,2.82,2.38,1.32.91,2.23.75,3.78.72.13.13-.68,3.36-.85,3.55-.72.78-3.4.46-4.51,2.38-.59,1.01-.22,1.97-.53,2.67-.47,1.05-2.37,2.84-2.8,3.8ZM81.54,21.59c.48.45,1.6,3.97,1.8,4.8.92,3.74.91,7.43.1,11.19-1.78-1.34-.77-4.42-1-6.5-.2-1.87-3.35-5.13-5.28-5.08-1.21.03-3.28,1.26-4.41,1.29-.42.01-4.85-1.1-5-1.31-.09-1.19-1.24-3.65-1.1-4.68.03-.21,2.03-3.31,2.2-3.41.29-.17,4.53-.18,5.05-.06,1.04.23,3.31,2.38,4.66,2.93.73.29,2.62.5,2.97.83ZM36.73,26.54c2.06-8.91,9.71-16.19,18.68-17.89,3.12-.59,6.21-.06,9.33.55.23.05.36.08.5.29-.52.62-.92,1.79-1.65,2.14-2.37,1.17-4.8.32-6.93,2.66-.96,1.06-3.29,4.94-4.14,5.45-.47.28-3.37,1.15-3.98,1.22-2.53.3-8.7-1.11-9.26,2.53-.12.76-.1,3.16.08,3.89.5,1.96,4.7,3.74,4.7,4.09v2.9l-6.87-3.43c-1.48-1.12-.83-2.85-.47-4.41ZM36.27,34.18c.28-.31,6.19,3.31,7.5,3.4,1.95.14,3.33-1.2,3.5-3.09.15-1.67.23-4.16-1-5.41-.65-.66-3.42-2.03-3.7-2.49-.3-.5,0-1.78-.1-2.4h6.9c.23,0,3.91-1.25,4.35-1.44,2.03-.85,4.03-5.01,5.6-6.69,2.34-.92,5.52-.66,7.22-2.68.74-.89,1.74-2.43,1.92-3.58,3.27,1.19,7.02,3.44,9.19,6.2l-.2.2c-.85-.55-2.14-1.45-3.12-1.58-1.08-.15-5.13-.18-6.13.03-.51.1-1.37.66-1.74,1.05-.43.46-2.85,4.16-2.95,4.64-.27,1.28.72,5.36,1.21,6.69.49,1.35,1.2,1.83,2.54,2.26.9.29,4.76,1.29,5.5,1.29,1.15,0,3.74-1.4,4.4-1.33.13.01,1.81,1.66,1.91,1.82.55.96-.04,4.62.28,6.12.3,1.44,2.15,2.96,2.84,4.29-2.89,6.81-8.73,11.8-15.82,13.89l.14-2.85c.8-1.47,2.83-3.32,3.14-4.85.09-.44-.11-1.16.11-1.49.43-.65,3.62-.43,4.65-2.74.72-1.61,1.62-5.47.42-6.92-1.4-1.68-3.05-.71-4.36-1.24-1.19-.48-2.55-2.63-4-3-.84-.21-1.95.1-2.6-.2-.8-.37-2.72-3.01-3.7-3.7-.92-.65-1.96-.77-3.04-.44-.79.24-5.97,3.41-6.75,4.04-.67.53-1.31,1.28-1.45,2.15-.15.89-.17,3.81.05,4.65.25.98,2.45,3.21,3.3,3.89.55.44,2.82,1.55,2.9,1.7.35.57-.08,3.35.19,4.41.25.96,3.19,6.24,3.9,6.9.16.15.38.28.6.29,0,.35-.88.22-1.11.21-11.73-.78-21.79-10.09-22.48-21.99ZM69.93,97.75l-19.86-.02-2.41-11.18h24.78l-2.51,11.2ZM76.05,83.34h-31.98v-3.2h31.98v3.2Z"/>
    <path class="cls-1" d="M76.81,59.33h0c-.42-.71-.22-1.62.45-2.1,4.73-3.39,8.55-7.91,10.81-13.32,5.11-12.25,1.66-26.76-8.6-34.99-.67-.54-.79-1.52-.28-2.21h0c.54-.74,1.59-.88,2.31-.31,5.87,4.66,10.04,11.83,11.47,19.14,2.6,13.24-2.89,26.77-13.89,34.29-.76.52-1.8.29-2.27-.5Z"/>
    <path class="cls-1" d="M77.44,16.19l.2-.2c.26.28.15.38-.2.2Z"/>
    <polygon class="cls-3" points="72.45 86.54 69.93 97.75 50.07 97.72 47.67 86.54 72.45 86.54"/>
    <rect class="cls-3" x="44.07" y="80.15" width="31.98" height="3.2"/>
    <path class="cls-3" d="M58.26,68.95c-4.27.47-8.4-2.08-9.19-6.39,4.26-.47,8.4,2.08,9.19,6.39Z"/>
    <path class="cls-3" d="M67.65,67.36c-.62,2.39-3.26,3.52-5.6,3.2.62-2.39,3.26-3.52,5.6-3.2Z"/>
    <path class="cls-1" d="M78.04,16.29v.3c-.43.15-.45-.3-.6-.4l.2-.2c.07.09.34.15.4.3Z"/>
    <path class="cls-1" d="M43.19,59.33h0c.42-.71.22-1.62-.45-2.1-4.73-3.39-8.55-7.91-10.81-13.32-5.11-12.25-1.66-26.76,8.6-34.99.67-.54.79-1.52.28-2.21h0c-.54-.74-1.59-.88-2.31-.31-5.87,4.66-10.04,11.83-11.47,19.14-2.6,13.24,2.89,26.77,13.89,34.29.76.52,1.8.29,2.27-.5Z"/>
  </g>
</svg>