<?xml version="1.0" encoding="UTF-8"?>
<svg id="Layer_1" data-name="Layer 1" xmlns="http://www.w3.org/2000/svg" viewBox="0 0 125 125">
  <defs>
    <style>
      .cls-1, .cls-2 {
        fill: #219ed9;
      }

      .cls-3 {
        fill: #f68e4b;
      }

      .cls-4 {
        fill: #c4e7f0;
      }

      .cls-2 {
        stroke: #219ed9;
        stroke-miterlimit: 10;
        stroke-width: .5px;
      }
    </style>
  </defs>
  <g>
    <path class="cls-2" d="M35.02,49.65c-8.21.84-14.68,8.82-14.21,16.99.83,14.58,19.28,20.93,28.72,9.71,9.62-11.44.36-28.21-14.51-26.7ZM45.49,76.24c-8.41,6.83-21.05,1.04-21.77-9.63-.45-6.7,4.76-13.31,11.5-14.07,13.67-1.54,20.78,15.17,10.27,23.7ZM35.02,49.65c-8.21.84-14.68,8.82-14.21,16.99.83,14.58,19.28,20.93,28.72,9.71,9.62-11.44.36-28.21-14.51-26.7ZM45.49,76.24c-8.41,6.83-21.05,1.04-21.77-9.63-.45-6.7,4.76-13.31,11.5-14.07,13.67-1.54,20.78,15.17,10.27,23.7ZM109.86,71.4c-.06-.35-.67-1.36-.92-1.36h-3.93l-.35-33.33c-.27-.59-.92-.86-1.52-.95-1.6-.23-5.76-.18-7.43-.03-.61.06-1.95.38-1.95,1.15v33.17h-3.51v-25.93c0-.46-1.29-.9-1.75-.94-1.68-.16-6.49-.23-8.06.02-.4.07-1.15.51-1.15.92v25.93h-3.51v-18.49c0-.2-.78-1.17-1.14-1.13-2.71.2-5.81-.28-8.48-.02-.58.06-1.54.57-1.54,1.15v18.49h-5.79c2.45-11.92-5.45-23.61-17.32-25.97-4.27-.85-7.88-.39-12.02.76V8.57c0-.25-1.01-.86-1.36-.92-1.28-.2-5.03-.15-6.4-.02-.79.07-1.48.31-1.74,1.15v42.58c-6.76,8.97-6.87,21.55,1.13,29.86.5.52,3.63,2.96,3.63,3.2,0,.67-2.23.93-2.46,1.89-1.35,3.62-4,7.59-5.15,11.17-.95,2.93.63,3.74,2.91,4.85,2.05.99,4.05,2.13,5.82-.03.93-1.12,4.7-9.56,5.28-11.26.12-.36.32-.93.33-1.28.04-.96-.72-1.69-.33-2.55,8.54,2.28,17.34-.62,23.08-7.19l54.69-.08c.73-.4.91-.93.98-1.71.13-1.45.2-5.47-.02-6.82ZM96.64,38.64h5.17v31.41h-5.17v-31.41ZM82.18,46.07h5.16v23.97h-5.16v-23.97ZM67.5,53.31h5.38v16.74h-5.38v-16.74ZM22.87,10.53h3.72v35.65l-3.72,2.58V10.53ZM28.41,89.94l-4.73,10.69c-.28.2-1.67-.64-2.06-.82-.6-.28-1.95-.49-1.83-1.3,1.77-3.5,3.14-7.23,5.02-10.64.76.11,1.37.69,1.98.99.53.26,1.74.18,1.62,1.08ZM34.36,84.91c-.87-.13-3.66-1.05-4.11-.98-.9.14-1.61,1.65-1.8,2.44l-1.05-.53c-.12-.68,1.25-1.71.4-3.06-.28-.45-2.97-2.04-3.7-2.7-16.07-14.54,1.03-41.06,21.22-31.76,19.76,9.1,10.95,39.73-10.96,36.59ZM35.02,49.65c-8.21.84-14.68,8.82-14.21,16.99.83,14.58,19.28,20.93,28.72,9.71,9.62-11.44.36-28.21-14.51-26.7ZM45.49,76.24c-8.41,6.83-21.05,1.04-21.77-9.63-.45-6.7,4.76-13.31,11.5-14.07,13.67-1.54,20.78,15.17,10.27,23.7ZM35.02,49.65c-8.21.84-14.68,8.82-14.21,16.99.83,14.58,19.28,20.93,28.72,9.71,9.62-11.44.36-28.21-14.51-26.7ZM45.49,76.24c-8.41,6.83-21.05,1.04-21.77-9.63-.45-6.7,4.76-13.31,11.5-14.07,13.67-1.54,20.78,15.17,10.27,23.7ZM35.02,49.65c-8.21.84-14.68,8.82-14.21,16.99.83,14.58,19.28,20.93,28.72,9.71,9.62-11.44.36-28.21-14.51-26.7ZM45.49,76.24c-8.41,6.83-21.05,1.04-21.77-9.63-.45-6.7,4.76-13.31,11.5-14.07,13.67-1.54,20.78,15.17,10.27,23.7Z"/>
    <path class="cls-2" d="M48.2,10.72c-.2-.81-.64-1.14-1.45-1.23-2.5-.29-8.42-.24-10.97,0-1.23.11-1.65.53-1.76,1.76-.25,2.68-.25,8.08,0,10.76.09,1,.28,1.34,1.29,1.6,1.56.41,9.15.33,11.02.14.35-.03,1.27-.26,1.5-.47.21-.19.44-.97.47-1.28.2-1.78.26-9.77-.09-11.28ZM45.39,20.55s-.29.31-.31.31h-7.85s-.31-.29-.31-.31v-8.17h8.48v8.17Z"/>
    <path class="cls-2" d="M48.29,29.44c-.09-.74-.52-1.5-1.34-1.56l-11.95.05c-.6.32-.9.84-.98,1.51-.27,2.26-.27,8.71,0,10.96.12.97.56,1.46,1.54,1.56,3.59.35,7.73-.29,11.39,0,.96-.1,1.26-.9,1.34-1.76.23-2.47.28-8.35,0-10.76ZM45.39,39.05h-8.48v-8.26h8.48v8.26Z"/>
    <path class="cls-2" d="M92.16,35.06c-.15-.12-.44-.69-.47-.89-.06-.45.49-1.71-.1-1.53l-23.38,14.86c-1.79.74-2.99-1.64-1.18-2.63l23.11-14.71c.26-.25,0-.19-.16-.25-.98-.41-2.25-.76-1.65-2.17.35-.82.94-.95,1.76-.84.5.07,3.94,1.21,4.35,1.44.38.22.51.4.64.83.15.51-.19,3.27-.31,3.96-.1.61-.19,1.63-.72,1.97-.5.32-1.4.35-1.88-.04Z"/>
    <g>
      <path class="cls-1" d="M54.43,18.02c5.53.37,12.12-.66,17.52-.05,2.33.27,2.32,2.69.63,2.9l-18.39-.02c-1.74-.27-1.41-2.67.24-2.83Z"/>
      <path class="cls-1" d="M72.63,21.24l-18.44-.02c-1.1-.17-1.55-.98-1.53-1.72.02-.84.63-1.74,1.73-1.85h.03s.03,0,.03,0c2.51.17,5.31.04,8.02-.08,3.23-.15,6.56-.3,9.51.04,1.48.17,2.15,1.12,2.16,1.98,0,.86-.62,1.54-1.52,1.65ZM54.44,18.39c-.66.08-1.03.63-1.04,1.14,0,.19.04.84.85.96l18.33.02c.6-.08.83-.54.83-.92,0-.54-.47-1.14-1.5-1.25-2.89-.33-6.2-.18-9.39-.03-2.72.12-5.52.25-8.07.08Z"/>
    </g>
    <g>
      <path class="cls-1" d="M54.22,12.23l17.94-.05c1.89.12,2.24,2.67.21,2.9-5.55.65-12.31-.5-17.99,0-1.7-.35-1.8-2.29-.15-2.86Z"/>
      <path class="cls-1" d="M68.33,15.65c-1.75,0-3.54-.08-5.3-.16-2.91-.14-5.92-.27-8.63-.03h-.05s-.05,0-.05,0c-.93-.2-1.57-.85-1.62-1.67-.05-.84.51-1.58,1.43-1.9l.12-.02,17.94-.05c1.26.08,1.93,1,1.95,1.87.02.77-.5,1.62-1.7,1.76-1.3.15-2.68.21-4.08.21ZM57.74,14.59c1.76,0,3.56.08,5.32.16,3.15.15,6.4.3,9.26-.04.79-.09,1.06-.58,1.05-1.01-.01-.54-.44-1.11-1.24-1.16l-17.85.05c-.68.26-.9.75-.88,1.14.03.47.41.85.99.98,1.08-.09,2.2-.13,3.34-.13Z"/>
    </g>
    <g>
      <path class="cls-1" d="M54.01,30.62l18.35-.05c1.99.22,1.72,2.76-.21,2.9-5.55-.48-12.15.63-17.58,0-1.73-.2-2.14-2.05-.57-2.86Z"/>
      <path class="cls-1" d="M58.53,34.04c-1.37,0-2.72-.05-3.99-.2-.97-.11-1.7-.71-1.85-1.53-.15-.8.29-1.57,1.15-2.01l.17-.04,18.35-.05c1.24.13,1.76.98,1.74,1.75-.01.87-.68,1.79-1.92,1.88-2.69-.23-5.62-.09-8.45.04-1.73.08-3.49.16-5.2.16ZM54.1,30.99c-.51.29-.77.73-.69,1.19.09.49.56.86,1.21.93,2.8.32,5.99.18,9.07.03,2.86-.13,5.81-.27,8.49-.04.78-.06,1.17-.65,1.18-1.16,0-.43-.26-.92-1.05-1.01l-18.22.05Z"/>
    </g>
    <g>
      <path class="cls-1" d="M54.22,36.41l11.72-.03c1.62.25,1.76,2.38.21,2.88h-11.98c-1.56-.58-1.5-2.29.04-2.84Z"/>
      <path class="cls-1" d="M66.21,39.62l-12.16-.02c-.86-.32-1.39-1-1.39-1.76,0-.78.56-1.46,1.43-1.77l.12-.02,11.72-.03c.96.15,1.59.8,1.66,1.67.07.87-.47,1.64-1.33,1.93l-.06.02ZM54.25,38.88h11.85c.62-.23.81-.76.77-1.15-.03-.41-.31-.89-.98-1l-11.6.04c-.54.21-.88.61-.88,1.06,0,.44.31.83.85,1.05Z"/>
    </g>
    <path class="cls-4" d="M45.32,48.31c-20.19-9.3-37.29,17.22-21.22,31.76.73.66,3.42,2.26,3.7,2.7.85,1.35-.52,2.38-.4,3.06l1.05.53c.19-.8.9-2.31,1.8-2.44.45-.07,3.24.85,4.11.98,21.91,3.14,30.73-27.49,10.96-36.59ZM49.52,76.35c-9.44,11.22-27.89,4.88-28.72-9.71-.47-8.17,6-16.15,14.21-16.99,14.87-1.52,24.13,15.26,14.51,26.7Z"/>
    <path class="cls-1" d="M35.02,49.65c-8.21.84-14.68,8.82-14.21,16.99.83,14.58,19.28,20.93,28.72,9.71,9.62-11.44.36-28.21-14.51-26.7ZM45.49,76.24c-8.41,6.83-21.05,1.04-21.77-9.63-.45-6.7,4.76-13.31,11.5-14.07,13.67-1.54,20.78,15.17,10.27,23.7Z"/>
    <polygon class="cls-4" points="106.98 72.94 106.98 77.08 56.35 77.08 58 72.94 106.98 72.94"/>
    <path class="cls-4" d="M28.41,89.94l-4.73,10.69c-.28.2-1.67-.64-2.06-.82-.6-.28-1.95-.49-1.83-1.3,1.77-3.5,3.14-7.23,5.02-10.64.76.11,1.37.69,1.98.99.53.26,1.74.18,1.62,1.08Z"/>
    <path class="cls-1" d="M35.02,49.65c-8.21.84-14.68,8.82-14.21,16.99.83,14.58,19.28,20.93,28.72,9.71,9.62-11.44.36-28.21-14.51-26.7ZM45.49,76.24c-8.41,6.83-21.05,1.04-21.77-9.63-.45-6.7,4.76-13.31,11.5-14.07,13.67-1.54,20.78,15.17,10.27,23.7Z"/>
  </g>
  <path class="cls-3" d="M109.6,114.49c.28.3.47,1.26.39,1.72-.42,2.36-3.97.89-5.16.03-1.63-1.18-2.34-3-4.58-2.89-2.95.14-4.17,4.46-8.56,4.1-4-.33-5.71-5.97-9.63-3.4-2.51,1.64-3.24,3.69-6.74,3.4-3.49-.28-4.96-4.42-7.99-4.09-2.68.29-4.02,4.53-8.38,4.09-4.11-.41-5.52-6.29-9.82-3.2-2.36,1.7-3.26,3.49-6.55,3.2-3.33-.3-4.79-4.29-7.63-4.1-2.94.2-4.16,4.46-8.56,4.1-3.11-.25-3.89-2.78-6.04-3.77-1.24-.57-3.07.08-2.99-2.15.1-2.68,3.5-1.41,4.79-.57,2.43,1.58,3.4,4.59,6.81,2.36,2.91-1.91,4.01-4.46,8.09-3.03,3.08,1.08,4.53,5.55,8.28,3.03,2.81-1.88,3.8-4.33,7.79-3.12,2.16.65,3.22,2.75,4.8,3.48,4.35,2.02,5.98-5.54,11.82-3.34,3.07,1.16,4.37,5.32,8.02,3.05,3.16-1.96,4.43-4.84,8.75-2.87,2.69,1.23,3.98,4.94,7.3,3.13,2.49-1.36,3.18-3.95,6.81-3.75,3.26.18,4.07,2.77,6.23,3.77.75.35,2.28.32,2.74.81Z"/>
</svg>