<?xml version="1.0" encoding="UTF-8"?>
<svg id="Layer_1" data-name="Layer 1" xmlns="http://www.w3.org/2000/svg" viewBox="0 0 125 125">
  <defs>
    <style>
      .cls-1 {
        fill: #219ed9;
      }

      .cls-2 {
        fill: #fff;
      }

      .cls-3 {
        fill: #f68e4b;
      }

      .cls-4 {
        fill: #0f9ccb;
      }

      .cls-5 {
        fill: #c4e7f0;
      }
    </style>
  </defs>
  <g>
    <path class="cls-1" d="M53.76,43.93c-1.36.29-1.32,2.61-1.06,3.68.35,1.61,2.88,1.45,3.19,0,.37-1.65.12-4.18-2.13-3.68ZM65.35,64.06c-.68-.62-3.89-.58-4.82-.41-1.74.31-1.74,2.87-.21,3.19.64.15,3.76.15,4.38,0,1.18-.25,1.49-2.01.66-2.79ZM65.72,53.16c-.46-1.47-4.01-1.37-5.21-1.12-1.76.41-1.88,3.18.54,3.45,1.59.17,5.5.33,4.67-2.32ZM67.23,58.99c-.89-1.57-3.16-.25-4.65-.23-1.08,0-3.17-.77-4.01-.52-.33.1-1.01.91-1.06,1.26-.45,2.48,4.49,2.69,6.06,2.57,1.51-.14,4.94-.83,3.66-3.08ZM70.19,43.93c-1.36.29-1.3,2.61-1.06,3.68.33,1.47,2.85,1.61,3.21,0,.37-1.66.17-4.2-2.15-3.68ZM70.19,43.93c-1.36.29-1.3,2.61-1.06,3.68.33,1.47,2.85,1.61,3.21,0,.37-1.66.17-4.2-2.15-3.68ZM62.59,58.76c-1.08,0-3.17-.77-4.01-.52-.33.1-1.01.91-1.06,1.26-.45,2.48,4.49,2.69,6.06,2.57,1.51-.14,4.94-.83,3.66-3.08-.89-1.57-3.16-.25-4.65-.23ZM61.06,55.49c1.59.17,5.5.33,4.67-2.32-.46-1.47-4.01-1.37-5.21-1.12-1.76.41-1.88,3.18.54,3.45ZM60.53,63.66c-1.74.31-1.74,2.87-.21,3.19.64.15,3.76.15,4.38,0,1.18-.25,1.49-2.01.66-2.79-.68-.62-3.89-.58-4.82-.41ZM53.76,43.93c-1.36.29-1.32,2.61-1.06,3.68.35,1.61,2.88,1.45,3.19,0,.37-1.65.12-4.18-2.13-3.68ZM97.13,101.62c-.64-11.07-5.38-19.46-15.95-23.31-.83-.31-4.36-1.18-4.69-1.41-1.34-.97-2.42-6.93-2.28-8.63,2.17-2.4,5.96-4.39,7.34-7.38.83-1.8.89-3.83.91-5.79,7.09-1.32,8.77-10.73,2.88-14.79.87-.62,1.7-1.26,1.9-2.38.16-.91.16-4.01-.04-4.9-.25-1.08-1.65-1.92-1.66-2.05-.1-.37.06-.89,0-1.32-1.26-8.54-5.96-15.08-13.86-18.62-.52-.25-2.32-.7-2.54-.85-.19-.17-.5-1.28-.91-1.7-.48-.52-1.1-.58-1.65-.97h-8.33c-.43.45-1.01.5-1.45.97-.37.39-.77,1.61-.91,1.7-.19.14-1.8.5-2.27.72-8.09,3.6-12.84,9.99-14.13,18.76-.06.43.1.95,0,1.32-.02.14-1.39.87-1.65,2.07-.21.95-.21,3.91-.04,4.88.17,1.12,1.01,1.76,1.88,2.38-5.94,4.22-4.18,13.15,2.81,14.99.17,2.44.21,4.78,1.68,6.83.87,1.24,6.68,5.87,6.72,6.41-.29,2.19-.46,4.36-1.3,6.43-.14.33-.89,1.8-1.06,1.94-.33.23-2.32.62-2.94.83-8.81,2.96-13.3,6.54-16.05,15.66-.79,2.63-2.01,7.92-1.63,10.53.17,1.26,1.16,2.11,2.28,2.54l64.14.1c2.73-.6,2.94-2.5,2.79-4.94ZM41.04,34.02h42.94v3.1h-42.94v-3.1ZM47.23,60.62c-1.84-2.23-.89-4.28-1.16-6.78-.23-2.03-1.39-1.53-2.77-1.88-4.86-1.24-5.21-7.45-.72-9.43v3c0,.14.48,1.1.68,1.26.99.83,2.81.06,2.81-1.06v-5.13h32.87v5.32c0,.17.68.91.91,1.03,1.2.64,2.57-.31,2.57-1.61v-2.81c4.49,1.92,4.1,8.25-.72,9.43-1.39.33-2.52-.23-2.77,1.88-.29,2.65.76,4.69-1.34,6.97-3.23,2.36-6.27,6.06-9.51,8.31-2.05,1.39-6.12,1.32-8.6,1.06-1.7-.17-2.71-1.18-3.97-2.21-2.15-1.78-6.66-5.38-8.31-7.36ZM73.51,78.41c-4.28,3.58-11.19,4.03-16.46,2.75-1.96-.46-4.03-1.37-5.54-2.75,1.43-2.15,2.13-4.7,2.5-7.26,1.59,1.2,3.06,2.17,5.11,2.34,2.58.19,7.53.27,9.78-.87.79-.41,1.34-1.08,2.13-1.47.31,2.56,1.06,5.09,2.48,7.26ZM31.18,103.27c.41-5,1.45-10.59,4.16-14.89,2.11-3.31,5.77-5.58,9.47-6.78.33.19-.1.43-.19.58-1.01,1.45-4.67,5.98-4.88,7.3-.25,1.43.19,2.03.68,3.27,1.43,3.56,3.43,6.95,4.88,10.51h-14.11ZM56.7,102.78l-.17.41c-.29.19-6.33.17-7.09.08-.27-.02-.5-.02-.64-.31l-5.79-12.58,2.96-4.32c.64-.17,5.56,6.33,7.72,6.58,1.12.12,2.28-.56,2.54-.54.23.02,1.41,1.74,1.26,2.17l-.79,8.52ZM54.3,89.33c-.68-.85-6.1-5.75-6.1-6.27,0-.29,1.12-1.82,1.41-1.82,2.69,1.94,5.71,3.25,9.02,3.66l-4.34,4.43ZM59.99,103.27l.77-8.33h3.48l.77,8.33h-5.03ZM64.99,91.61c-.21.14-4.57.12-4.86.02-.29-.1-1.36-1.8-1.26-2.15.06-.25,3.43-3.62,3.72-3.62.5.68,3.45,3.08,3.58,3.62.06.21-1.06,2.07-1.18,2.13ZM75.4,81.24c.29,0,1.43,1.53,1.43,1.82,0,.52-5.42,5.42-6.1,6.27l-4.36-4.43c3.31-.41,6.33-1.72,9.02-3.66ZM68.32,103.27l-.79-9c-.14-.43,1.03-2.15,1.28-2.17.23-.02,1.39.66,2.52.54,2.17-.25,7.09-6.76,7.72-6.58l2.96,4.32-6.04,12.89h-7.65ZM79.72,103.27l5.07-10.9c.43-1.08.72-1.65.5-2.88-.23-1.32-3.89-5.85-4.9-7.3-.1-.15-.52-.39-.19-.58,3.7,1.2,7.4,3.43,9.47,6.78,2.69,4.34,3.76,9.85,4.18,14.89h-14.13ZM72.34,47.61c.37-1.66.17-4.2-2.15-3.68-1.36.29-1.3,2.61-1.06,3.68.33,1.47,2.85,1.61,3.21,0ZM63.57,62.07c1.51-.14,4.94-.83,3.66-3.08-.89-1.57-3.16-.25-4.65-.23-1.08,0-3.17-.77-4.01-.52-.33.1-1.01.91-1.06,1.26-.45,2.48,4.49,2.69,6.06,2.57ZM61.06,55.49c1.59.17,5.5.33,4.67-2.32-.46-1.47-4.01-1.37-5.21-1.12-1.76.41-1.88,3.18.54,3.45ZM60.53,63.66c-1.74.31-1.74,2.87-.21,3.19.64.15,3.76.15,4.38,0,1.18-.25,1.49-2.01.66-2.79-.68-.62-3.89-.58-4.82-.41ZM55.89,47.61c.37-1.65.12-4.18-2.13-3.68-1.36.29-1.32,2.61-1.06,3.68.35,1.61,2.88,1.45,3.19,0Z"/>
    <path class="cls-2" d="M55.89,47.61c-.31,1.45-2.85,1.61-3.19,0-.25-1.06-.29-3.39,1.06-3.68,2.25-.5,2.5,2.03,2.13,3.68Z"/>
    <path class="cls-2" d="M65.35,64.06c.83.77.52,2.54-.66,2.79-.62.15-3.74.15-4.38,0-1.53-.33-1.53-2.88.21-3.19.93-.17,4.14-.21,4.82.41Z"/>
    <path class="cls-2" d="M60.51,52.04c1.2-.25,4.74-.35,5.21,1.12.83,2.65-3.08,2.5-4.67,2.32-2.42-.27-2.3-3.04-.54-3.45Z"/>
    <path class="cls-2" d="M67.23,58.99c1.28,2.25-2.15,2.94-3.66,3.08-1.57.12-6.51-.1-6.06-2.57.06-.35.74-1.16,1.06-1.26.83-.25,2.92.52,4.01.52,1.49-.02,3.76-1.34,4.65.23Z"/>
    <path class="cls-2" d="M72.34,47.61c-.37,1.61-2.88,1.47-3.21,0-.23-1.06-.29-3.39,1.06-3.68,2.32-.52,2.52,2.01,2.15,3.68Z"/>
    <path class="cls-5" d="M65.8,10.8v12.09c0,1.37,3.29,1.37,3.29,0v-9.19c.54,0,3.22,1.2,3.29,1.49l.14,11.23c.45.81,1.53,1.16,2.35.71.14-.08.79-.71.79-.76v-8.8c3.84,3.19,6.1,8.01,6.58,12.96h-39.46c.48-4.94,2.73-9.79,6.58-12.96v8.8c0,.31,1.1.94,1.52.96,1.25.07,1.67-.85,1.77-1.92.3-3.24-.24-6.93-.01-10.22.08-.35,2.75-1.42,3.29-1.49v9.19c0,.09.53.8.66.88.79.48,2.62,0,2.62-.88v-12.09h6.58Z"/>
    <path class="cls-4" d="M63.57,62.07c-1.57.12-6.51-.1-6.06-2.57.06-.35.74-1.16,1.06-1.26.83-.25,2.92.52,4.01.52,1.49-.02,3.76-1.34,4.65.23,1.28,2.25-2.15,2.94-3.66,3.08Z"/>
    <path class="cls-4" d="M61.06,55.49c-2.42-.27-2.3-3.04-.54-3.45,1.2-.25,4.74-.35,5.21,1.12.83,2.65-3.08,2.5-4.67,2.32Z"/>
    <path class="cls-4" d="M64.7,66.85c-.62.15-3.74.15-4.38,0-1.53-.33-1.53-2.88.21-3.19.93-.17,4.14-.21,4.82.41.83.77.52,2.54-.66,2.79Z"/>
    <path class="cls-4" d="M72.34,47.61c-.37,1.61-2.88,1.47-3.21,0-.23-1.06-.29-3.39,1.06-3.68,2.32-.52,2.52,2.01,2.15,3.68Z"/>
    <path class="cls-4" d="M55.89,47.61c-.31,1.45-2.85,1.61-3.19,0-.25-1.06-.29-3.39,1.06-3.68,2.25-.5,2.5,2.03,2.13,3.68Z"/>
  </g>
  <path class="cls-3" d="M96.86,114.82c.21.27.35,1.12.29,1.53-.31,2.1-2.97.8-3.86.03-1.22-1.05-1.75-2.67-3.43-2.57-2.21.13-3.12,3.97-6.4,3.65-3-.29-4.27-5.31-7.2-3.03-1.88,1.46-2.43,3.28-5.04,3.03-2.61-.25-3.71-3.93-5.98-3.64-2,.26-3,4.03-6.27,3.64-3.07-.37-4.13-5.59-7.35-2.84-1.77,1.51-2.44,3.11-4.9,2.84s-3.59-3.82-5.71-3.65c-2.2.18-3.11,3.97-6.4,3.65-2.33-.23-2.91-2.47-4.52-3.35-.93-.51-2.3.07-2.24-1.92.07-2.38,2.62-1.26,3.59-.51,1.82,1.41,2.55,4.08,5.1,2.1,2.18-1.7,3-3.97,6.06-2.7,2.31.96,3.39,4.93,6.2,2.7,2.1-1.67,2.84-3.85,5.83-2.78,1.61.58,2.41,2.45,3.59,3.1,3.26,1.79,4.47-4.93,8.84-2.97,2.3,1.03,3.27,4.73,6,2.72,2.36-1.75,3.32-4.31,6.54-2.55,2.01,1.09,2.98,4.4,5.46,2.79,1.87-1.21,2.38-3.51,5.1-3.34,2.44.16,3.04,2.46,4.66,3.35.56.31,1.71.28,2.05.72Z"/>
</svg>