<?xml version="1.0" encoding="UTF-8"?>
<svg id="Layer_1" data-name="Layer 1" xmlns="http://www.w3.org/2000/svg" viewBox="0 0 125 125">
  <defs>
    <style>
      .cls-1 {
        fill: #219ed9;
      }

      .cls-2 {
        fill: #f68e4b;
      }
    </style>
  </defs>
  <path class="cls-1" d="M117.47,50.01c-.1.8-.69,1.42-1.46,1.67-3.06,1-4.92,4.83-10.06,4.47-5.3-.37-7.56-6.84-12.75-3.9-3.33,1.89-4.29,4.23-8.93,3.9-4.62-.33-6.57-5.07-10.58-4.69-3.55.34-5.32,5.2-11.1,4.69-5.44-.48-7.31-7.21-13.01-3.67-3.13,1.95-4.32,4-8.67,3.66-4.41-.35-6.35-4.92-10.1-4.7s-5.51,5.11-11.34,4.7c-4.12-.29-5.15-3.18-8-4.32-1.65-.66-4.07.09-3.96-2.47.13-3.07,4.63-1.62,6.35-.65,3.22,1.81,4.51,5.26,9.03,2.7,3.86-2.19,5.31-5.11,10.72-3.47,4.09,1.24,6,6.36,10.97,3.48,3.72-2.16,5.03-4.97,10.32-3.58,2.85.75,4.26,3.15,6.36,3.99,5.77,2.31,7.92-6.36,15.65-3.83,4.07,1.33,5.79,6.1,10.63,3.5,4.18-2.25,5.87-5.55,11.58-3.29,3.56,1.41,5.28,5.67,9.66,3.59,2.52-1.19,3.64-3.2,6.17-3.98,1.37-.42,2.71.77,2.53,2.19h0Z"/>
  <path class="cls-1" d="M117.47,60.69c-.1.8-.69,1.42-1.46,1.67-3.06,1-4.92,4.83-10.06,4.47-5.3-.37-7.56-6.84-12.75-3.9-3.33,1.89-4.29,4.23-8.93,3.9s-6.57-5.07-10.58-4.69c-3.55.34-5.32,5.2-11.1,4.69-5.44-.48-7.31-7.21-13.01-3.67-3.13,1.95-4.32,4-8.67,3.66-4.41-.35-6.35-4.92-10.1-4.7-3.9.23-5.51,5.11-11.34,4.7-4.12-.29-5.15-3.18-8-4.32-1.65-.66-4.07.09-3.96-2.47.13-3.07,4.63-1.62,6.35-.65,3.22,1.81,4.51,5.26,9.03,2.7,3.86-2.19,5.31-5.11,10.72-3.47,4.09,1.24,6,6.36,10.97,3.48,3.72-2.16,5.03-4.97,10.32-3.58,2.85.75,4.26,3.15,6.36,3.99,5.77,2.31,7.92-6.36,15.65-3.83,4.07,1.33,5.79,6.1,10.63,3.5,4.18-2.25,5.87-5.55,11.58-3.29,3.56,1.41,5.28,5.67,9.66,3.59,2.52-1.19,3.64-3.2,6.17-3.98,1.37-.42,2.71.77,2.53,2.19h0Z"/>
  <path class="cls-2" d="M117.47,71.37c-.1.8-.69,1.42-1.46,1.67-3.06,1-4.92,4.83-10.06,4.47-5.3-.37-7.56-6.84-12.75-3.9-3.33,1.89-4.29,4.23-8.93,3.9-4.62-.33-6.57-5.07-10.58-4.69-3.55.34-5.32,5.2-11.1,4.69-5.44-.48-7.31-7.21-13.01-3.67-3.13,1.95-4.32,4-8.67,3.66-4.41-.35-6.35-4.92-10.1-4.7s-5.51,5.11-11.34,4.7c-4.12-.29-5.15-3.18-8-4.32-1.65-.66-4.07.09-3.96-2.47.13-3.07,4.63-1.62,6.35-.65,3.22,1.81,4.51,5.26,9.03,2.7,3.86-2.19,5.31-5.11,10.72-3.47,4.09,1.24,6,6.36,10.97,3.48,3.72-2.16,5.03-4.97,10.32-3.58,2.85.75,4.26,3.15,6.36,3.99,5.77,2.31,7.92-6.36,15.65-3.83,4.07,1.33,5.79,6.1,10.63,3.5,4.18-2.25,5.87-5.55,11.58-3.29,3.56,1.41,5.28,5.67,9.66,3.59,2.52-1.19,3.64-3.2,6.17-3.98,1.37-.42,2.71.77,2.53,2.19h0Z"/>
</svg>