<?xml version="1.0" encoding="UTF-8"?>
<svg id="Layer_1" data-name="Layer 1" xmlns="http://www.w3.org/2000/svg" viewBox="0 0 120 120">
  <defs>
    <style>
      .cls-1 {
        fill: #219ed9;
      }

      .cls-2 {
        fill: #f68e4b;
      }

      .cls-3 {
        fill: #c4e7f0;
      }
    </style>
  </defs>
  <path class="cls-1" d="M71.97,44.08c-7.92.35-15.94.05-23.89.15-2.11-.25-2.33-3.21-.35-3.9l23.6-.05c2.01.33,2.41,2.77.64,3.8Z"/>
  <path class="cls-1" d="M107.41,41.03c-.18-.09-1.34-.55-1.41-.55h-22.95v-3.64c0-2.43-2.31-4.78-4.64-5.21l-37.52.07c-1.9.33-3.85,2.15-4.24,4.04-.45,2.17-.29,10.05-.1,12.53.2,2.64,1.94,4.39,4.46,5l37.02.03c2.51-.07,5.02-2.77,5.02-5.23v-3.64h22.16c.58,0,1.34,1.05,1.28,1.67l-.02,38.61c-.49,3.1-6.6-.33-6.09,3.74.27,2.17,3.96,1.85,5.52,1.6,2.32-.36,3.78-2.13,4.52-4.24v-40.98c-.59-1.56-1.47-3-3.02-3.78ZM78.87,48.42l-.8.78c-12.17.29-24.41.16-36.6.06-.64-.26-.9-.71-.98-1.39-.28-2.42-.23-8.17,0-10.65.08-.83.28-1.36,1.14-1.63l36.32.05c.47.24.99.59.98,1.18l-.05,11.59Z"/>
  <path class="cls-1" d="M90.14,83.03h10.34c1.17,0,2.14-2.25,1.21-3.18-4.82-5.35-8.87-12.4-13.73-17.6-.7-.75-.96-1.2-2.05-1.3-6.61-.61-14.17.47-20.88.02-2.3.68-2.13,3.5.18,3.94l19.67.03,3.37,4.12,1.49,2.15h-11.72c-.07,0-.85.48-.97.6-.97.99-.61,2.71.66,3.25l15.25.12,2.89,3.91H22.96l5.51-7.2,14.04-.14c1.36-.36,1.91-1.55,1.37-2.86-.11-.28-.91-1.04-1.13-1.04h-11.13c.52-.52,1.93-2.85,2.46-2.96,4.94-.09,9.93.2,14.83-.15,1.68-1.02,1.49-3.24-.45-3.78-5,.33-10.63-.47-15.56-.02-1,.09-1.22.4-1.86,1.1l-13.96,17.95c-.79.9.22,3.02,1.25,3.02h10.34c-.03.43-.45.81-.71,1.16-3.56,4.75-7.47,9.25-10.96,14.06-.56,1.44.34,2.91,1.9,2.91l81.52-.05c1.41-.38,1.99-1.71,1.33-3.02l-11.63-15.06ZM66.05,83.07l7.34.06,4.54,4.51c.86,1.93-1.25,2.05-2.67,1.88-2.05-.24-3.66-3.46-6.16-4.08-1.5-.37-5.33.16-3.06-2.38ZM32.82,84.32c.3-.13,1-1.28,1.08-1.28h8.18c-.38.55-1.14,1.58-1.87,1.58h-7.39v-.29ZM48.38,97.22c.24-.88,1.5-2.25,2.36-2.47.81-.21,5.49-.22,6.36-.05.42.08.92.44,1.23.73.41.37,1.06,1.24,1.27,1.78h-11.23ZM84.81,95.73c-.17.47-.09,1.32-.51,1.47l-19.28.03c-2.32-2.12-3.51-5.4-6.83-6.37-2.16-.63-7.33-.55-9.42.36-2.55,1.12-3.92,4.1-5.81,6h-19.99l6.5-8.57c3.55-.42,7.42.21,10.94-.09,3.36-.29,4.82-3.09,6.87-5.34l.6-.19h13.51c-.33,3.4,1.44,5.84,4.85,6.29.68.09,1.67-.14,2.24.13.52.24,2.06,1.97,2.67,2.45,3.21,2.51,9.41,2.49,10.83-1.97.97-3.05-.91-4.88-2.85-6.89h5.81l6.01,7.68c-2.79.37-5.13,2.4-6.12,5.01ZM88.56,97.22c1.08-3.52,6.08-3.41,7.29,0h-7.29Z"/>
  <path class="cls-1" d="M49.03,17.59c-3.1.71-3.48-3.45-1.09-3.86,2.62-.46,3.2,3.37,1.09,3.86Z"/>
  <path class="cls-1" d="M71.72,17.62h-14.76c-2.07-.55-2.02-3.34.03-3.89l14.32-.03c2.2.48,2.44,3.01.41,3.92Z"/>
  <path class="cls-1" d="M82.67,8.65c-.71-2.09-2.85-3.5-5.03-3.64h-36.06c-1.77-.17-5.02,2.6-5.02,4.24v5.02H14.59c-2.28,0-4.79,2.58-5.03,4.83v46.69c.81,4.18,4.35,5.19,8.18,4.83,1.71-.16,2.88-1.47,1.9-3.1-1.34-2.25-5.72.31-6.14-2.34.07-15.31-.2-30.66.14-45.94.07-.17.67-.84.73-.84h22.17v4.04c0,1.64,2.72,4.21,4.43,4.24l37.78-.05c2.69-.78,4.07-2.82,4.29-5.56.19-2.39.29-10.45-.39-12.43ZM78.87,21.82c-.28.44-.67.93-1.23.94l-36.22-.05c-.58-.3-.86-.8-.93-1.43-.27-2.24-.26-8.6,0-10.84.11-.91.51-1.14,1.33-1.43l35.03-.05c1.03-.03,2.01.33,2.06,1.48l-.04,11.39Z"/>
  <path class="cls-1" d="M51.87,71.26c.9-.16,4.73-.17,5.57.05,1.95.51,1.82,3.53-.11,3.84-.79.12-5.16.13-5.81-.08-1.86-.57-1.69-3.44.35-3.81Z"/>
  <path class="cls-1" d="M67.83,67.32c.93-.17,3.84-.16,4.66.17,1.81.73,1.38,3.42-.18,3.72-.63.12-4.46.08-5.01-.1-1.74-.59-1.49-3.42.53-3.79Z"/>
  <path class="cls-1" d="M56.2,61.01c3.16-.71,3.43,4.18.38,3.89-2.27-.22-2.21-3.48-.38-3.89Z"/>
  <path class="cls-1" d="M71.97,44.08c-7.92.35-15.94.05-23.89.15-2.11-.25-2.33-3.21-.35-3.9l23.6-.05c2.01.33,2.41,2.77.64,3.8Z"/>
  <path class="cls-3" d="M90.93,90.72c-2.79.37-5.13,2.4-6.12,5.01-.17.47-.09,1.32-.51,1.47l-19.28.03c-2.32-2.12-3.51-5.4-6.83-6.37-2.16-.63-7.33-.55-9.42.36-2.55,1.12-3.92,4.1-5.81,6h-19.99l6.5-8.57c3.55-.42,7.42.21,10.94-.09,3.36-.29,4.82-3.09,6.87-5.34l.6-.19h13.51c-.33,3.4,1.44,5.84,4.85,6.29.68.09,1.67-.14,2.24.13.52.24,2.06,1.97,2.67,2.45,3.21,2.51,9.41,2.49,10.83-1.97.97-3.05-.91-4.88-2.85-6.89h5.81l6.01,7.68Z"/>
  <path class="cls-1" d="M49.03,17.59c-3.1.71-3.48-3.45-1.09-3.86,2.62-.46,3.2,3.37,1.09,3.86Z"/>
  <path class="cls-1" d="M71.72,17.62h-14.76c-2.07-.55-2.02-3.34.03-3.89l14.32-.03c2.2.48,2.44,3.01.41,3.92Z"/>
  <path class="cls-1" d="M71.97,44.08c-7.92.35-15.94.05-23.89.15-2.11-.25-2.33-3.21-.35-3.9l23.6-.05c2.01.33,2.41,2.77.64,3.8Z"/>
  <path class="cls-1" d="M71.72,17.62h-14.76c-2.07-.55-2.02-3.34.03-3.89l14.32-.03c2.2.48,2.44,3.01.41,3.92Z"/>
  <path class="cls-1" d="M49.03,17.59c-3.1.71-3.48-3.45-1.09-3.86,2.62-.46,3.2,3.37,1.09,3.86Z"/>
  <path class="cls-2" d="M104.44,112.02c.27.3.45,1.25.37,1.7-.4,2.34-3.79.88-4.93.03-1.55-1.16-2.23-2.97-4.37-2.86-2.82.14-3.98,4.41-8.17,4.05-3.82-.32-5.45-5.9-9.19-3.36-2.4,1.63-3.09,3.65-6.44,3.36s-4.74-4.37-7.63-4.04c-2.56.29-3.83,4.48-8,4.05-3.92-.41-5.27-6.22-9.38-3.16-2.26,1.68-3.12,3.45-6.25,3.16-3.18-.3-4.58-4.24-7.28-4.05-2.81.2-3.97,4.41-8.17,4.05-2.97-.25-3.71-2.74-5.77-3.72-1.19-.56-2.94.08-2.86-2.13.09-2.65,3.34-1.4,4.58-.56,2.32,1.56,3.25,4.54,6.51,2.33,2.78-1.89,3.83-4.41,7.73-3,2.95,1.07,4.33,5.48,7.91,3,2.68-1.86,3.62-4.28,7.44-3.09,2.06.64,3.07,2.72,4.58,3.44,4.16,1.99,5.71-5.48,11.29-3.3,2.93,1.15,4.18,5.26,7.66,3.02,3.01-1.94,4.23-4.79,8.35-2.84,2.57,1.22,3.8,4.89,6.97,3.1,2.38-1.35,3.03-3.9,6.51-3.71,3.12.17,3.88,2.74,5.95,3.73.72.34,2.18.31,2.62.8Z"/>
</svg>