<?xml version="1.0" encoding="UTF-8"?>
<svg id="Layer_1" data-name="Layer 1" xmlns="http://www.w3.org/2000/svg" viewBox="0 0 125 125">
  <defs>
    <style>
      .cls-1 {
        fill: #219ed9;
      }

      .cls-2 {
        fill: #f68e4b;
      }

      .cls-3 {
        fill: #c4e7f0;
      }
    </style>
  </defs>
  <path class="cls-1" d="M119.31,103.65c-3.4-.77-4.7-4.97-10.15-4.53-1.69.14-3.02,1.01-4.46,1.69v-11.67c0-.43-1.16-1.33-1.57-1.33h-5.43v-15.2h23.25c.1,0,1.3-1.16,1.11-1.54-.6-8.08.72-17.13-.02-25.09-.05-.77-.12-1.37-.94-1.69-10.28-.31-17.54-8.64-23.83-15.7-.36-3.74.29-7.86-.05-11.53-.22-2.36-1.76-1.74-3.62-1.81v-6.13c0-1.21-1.81-1.95-2.89-1.45-.12.05-.96.89-.96.96v6.61c-1.5.12-3.14-.55-3.69,1.25l-.17,12.86c-5.72,7.26-14.81,15.15-24.7,14.59-8.9-.51-17.29-7.98-22.53-14.59l-.17-12.86c-.53-1.81-2.19-1.13-3.69-1.25v-6.61c0-.07-.84-.92-.96-.96-1.09-.51-2.89.24-2.89,1.45v6.13c-1.11.07-3.06-.39-3.5.96l-.12,11.94c-4.94,5.69-12.21,13.97-19.95,15.46-1.28.27-4.2.07-4.73,1.28l-.14,25.93c-.12.51.65,1.54,1.09,1.54h23.73v15.44h-5.4c-.6,0-1.81,1.09-1.81,1.81v11.26c-.92.63-1.59,1.5-2.58,2.05-4.99,2.8-6.51-2.24-10.44-3.43-2.07-.65-5.14-.94-4.56,2.15.26,1.52,2.89,1.23,4.17,1.83,2.56,1.25,3.74,3.67,7.28,4.05,5.57.6,7.65-4.41,11.29-4.56,3.76-.17,5.5,4.08,9.67,4.56,5.81.65,7.36-4.05,10.85-4.53,4.12-.58,6.03,4.05,10.37,4.53,6.01.68,7.67-4.75,12.01-4.56,2.97.12,5.28,4.12,8.95,4.56,6.61.77,8.85-6.75,14.23-3.88,3.14,1.69,4.29,4.2,8.64,3.91,4.53-.29,6.61-4.75,10.37-4.58,2.77.1,4.29,2.87,6.68,3.91,1.71.75,5.62,1.54,5.5-1.37-.1-1.98-2-1.59-3.23-1.86ZM109.26,63.94h8.8s.36.34.36.36v4.44h-9.17v-4.8ZM97.22,63.94h8.2v4.8h-8.2v-4.8ZM89.74,18.86c.72.12,3.18-.27,3.52.24l.1,68.09c-.22,1.13-2.75.39-3.62.6V18.86ZM79.15,63.94h6.73v5.04h-6.73v-5.04ZM64.2,63.94h11.1v4.8h-11.1v-4.8ZM49.27,63.94h11.07v4.8h-11.07v-4.8ZM38.66,63.94h6.75v4.8h-6.75v-4.8ZM31.18,18.86h3.38v68.94h-3.38V18.86ZM15.28,68.74H6.12v-4.44s.34-.36.36-.36h8.8v4.8ZM19.14,68.74v-4.8h8.18v4.8h-8.18ZM41.79,100.2c-1.93,1.59-3.64,3.74-6.39,3.5-3.06-.27-5.14-4.22-9.17-4.58-.58-.05-2.51.29-2.51-.12v-7.33h18.07v8.54ZM79.15,89.37v13.72c-.05.65-.55.6-1.09.63-3.57.1-5.55-5.21-11.31-4.58-3.06.36-4.44,2.27-6.73,3.64-5.93,3.59-8.08-4.73-14.13-3.67-.34-.34.17-8.08-.02-9.5-.1-.7-.82-1.81-1.54-1.81h-5.67v-15.2h47.47v15.2h-5.4c-.58,0-1.59.89-1.57,1.57ZM100.36,103.45c0,.07-1.11.27-1.33.27-2.39-.02-4.2-2.44-6.15-3.52-3.62-2.03-7.09-1.62-10.37.84v-9.62h17.85v12.04Z"/>
  <path class="cls-2" d="M121.98,114.12c.37.34.61,1.41.5,1.93-.54,2.65-5.14,1-6.69.04-2.11-1.32-3.03-3.37-5.93-3.24-3.82.16-5.4,5-11.09,4.6-5.19-.37-7.39-6.69-12.47-3.82-3.26,1.84-4.2,4.14-8.73,3.82-4.52-.32-6.43-4.96-10.35-4.59-3.47.33-5.2,5.08-10.85,4.59-5.32-.47-7.15-7.05-12.72-3.59-3.06,1.9-4.23,3.92-8.48,3.58-4.32-.34-6.21-4.81-9.88-4.6-3.81.22-5.39,5-11.09,4.6-4.03-.28-5.03-3.11-7.82-4.22-1.61-.64-3.98.09-3.88-2.42.12-3,4.53-1.58,6.21-.64,3.15,1.77,4.41,5.15,8.83,2.64,3.78-2.14,5.19-5,10.48-3.4,4,1.21,5.87,6.22,10.73,3.4,3.63-2.11,4.92-4.86,10.09-3.5,2.79.73,4.17,3.08,6.22,3.9,5.64,2.26,7.75-6.22,15.31-3.74,3.98,1.3,5.67,5.97,10.39,3.42,4.09-2.2,5.74-5.43,11.33-3.22,3.48,1.38,5.16,5.54,9.45,3.51,3.23-1.53,4.12-4.43,8.83-4.21,4.23.2,5.27,3.11,8.07,4.23.97.39,2.96.35,3.55.91Z"/>
  <path class="cls-3" d="M27.33,60.08h-8.19v-18.19c3.04-2.2,5.58-4.93,8.19-7.59v25.79Z"/>
  <path class="cls-3" d="M105.41,60.08h-8.19v-25.79c2.61,2.66,5.16,5.39,8.19,7.59v18.19Z"/>
  <path class="cls-3" d="M75.29,44.17v16.15h-11.09v-12.53c3.97-.36,7.54-1.95,11.09-3.61Z"/>
  <path class="cls-3" d="M60.35,47.79v12.53h-11.09v-16.15c1.03.4,1.96,1.04,2.97,1.49,2.57,1.12,5.31,1.89,8.12,2.13Z"/>
  <path class="cls-3" d="M45.4,60.32h-6.75v-24.82c2.26,2.05,4.31,4.29,6.75,6.15v18.68Z"/>
  <path class="cls-3" d="M85.89,60.32h-6.75v-18.68c2.44-1.86,4.49-4.09,6.75-6.15v24.82Z"/>
  <path class="cls-3" d="M118.43,47.79v12.17s-.34.36-.36.36h-8.8v-15.66c2.85,1.54,5.86,2.93,9.16,3.13Z"/>
  <path class="cls-3" d="M15.28,60.32H6.48s-.36-.34-.36-.36v-11.81c1.26-.56,2.79-.68,4.16-1.14,1.75-.58,3.34-1.58,5-2.35v15.66Z"/>
</svg>