<?xml version="1.0" encoding="UTF-8"?>
<svg id="Layer_1" data-name="Layer 1" xmlns="http://www.w3.org/2000/svg" viewBox="0 0 125 125">
  <defs>
    <style>
      .cls-1 {
        fill: #219ed9;
      }

      .cls-2 {
        fill: #010101;
      }

      .cls-3 {
        fill: #fff;
      }

      .cls-4 {
        fill: #f68e4b;
      }

      .cls-5 {
        fill: #c4e7f0;
      }
    </style>
  </defs>
  <g>
    <rect class="cls-2" x="60.05" y="73.2" width="4.04" height="7.44"/>
    <path class="cls-1" d="M105.95,50.36c-1.07-25.14-21.33-44.43-46.81-42.75-21.5,1.42-38.93,19.2-40.32,40.62v53.78c.15,1.81.84,2.48,2.65,2.65h81.81c1.71.17,2.5-1.17,2.66-2.65-.57-17.09.72-34.62,0-51.65ZM64.09,100.4v-11.26h-4.04v11.26H24.77l23.7-40.79h11.58v5.51h4.04v-5.19s.28-.32.32-.32h12.32l23.48,40.79h-36.11ZM89.58,73.64c-.32-.05-.4-.42-.54-.64-3.28-5.35-6.12-10.99-9.35-16.36-.29-3.35.17-6.72-.37-10.04-2.48-15.32-22.04-19.99-31-7.12-3.87,5.55-3.08,10.49-3.25,16.94-3.2,5.38-6.05,11.03-9.35,16.36-.13.23-.2.59-.52.64l-.02-24.33c1.61-19.29,22.29-31.2,39.73-22.1,9.15,4.78,14.18,13.84,14.68,24.01.35,7.42-.3,15.17-.02,22.64ZM75.35,47.6v7.98h-26.14v-7.32c0-1.76,1.54-4.91,2.58-6.35,5.95-8.13,18.92-6.59,22.66,2.78.2.52.91,2.51.91,2.92ZM101.69,94.67c-.34-.05-.4-.42-.54-.64-2.65-4.27-4.91-8.81-7.49-13.12-.59-10.51.62-21.6-.05-32.02-1.51-23.21-27.78-36.75-47.66-24.5-20.81,12.84-13.74,36.18-15.07,56.74l-8.03,13.74v-44.95c1.09-26.81,27.5-45.08,53.07-35.85,14.58,5.28,24.75,19.09,25.76,34.57v46.02Z"/>
    <rect class="cls-3" x="60.05" y="73.2" width="4.04" height="7.44"/>
    <path class="cls-3" d="M101.69,48.65v46.02c-.34-.05-.4-.42-.54-.64-2.65-4.27-4.91-8.81-7.49-13.12-.59-10.51.62-21.6-.05-32.02-1.51-23.21-27.78-36.75-47.66-24.5-20.81,12.84-13.74,36.18-15.07,56.74l-8.03,13.74v-44.95c1.09-26.81,27.5-45.08,53.07-35.85,14.58,5.28,24.75,19.09,25.76,34.57Z"/>
    <path class="cls-5" d="M75.35,47.6v7.98h-26.14v-7.32c0-1.76,1.54-4.91,2.58-6.35,5.95-8.13,18.92-6.59,22.66,2.78.2.52.91,2.51.91,2.92Z"/>
    <rect class="cls-1" x="60.05" y="73.2" width="4.04" height="7.44"/>
  </g>
  <path class="cls-4" d="M105.79,114.52c.27.3.44,1.25.37,1.7-.39,2.34-3.74.89-4.87.03-1.53-1.16-2.2-2.97-4.32-2.87-2.78.14-3.93,4.42-8.07,4.06-3.77-.32-5.38-5.91-9.08-3.37-2.37,1.63-3.06,3.65-6.36,3.37-3.29-.28-4.68-4.38-7.54-4.05-2.52.29-3.79,4.49-7.9,4.05-3.87-.41-5.21-6.23-9.26-3.17-2.23,1.68-3.08,3.46-6.17,3.17s-4.52-4.25-7.19-4.06c-2.78.2-3.92,4.42-8.07,4.06-2.93-.25-3.66-2.75-5.69-3.73-1.17-.57-2.9.08-2.82-2.13.09-2.65,3.3-1.4,4.52-.56,2.29,1.57,3.21,4.55,6.43,2.33,2.75-1.89,3.78-4.42,7.63-3,2.91,1.07,4.27,5.5,7.81,3.01,2.64-1.86,3.58-4.29,7.35-3.09,2.03.65,3.04,2.73,4.52,3.45,4.11,2,5.64-5.49,11.14-3.31,2.9,1.15,4.12,5.27,7.56,3.02,2.97-1.94,4.18-4.8,8.25-2.84,2.53,1.22,3.76,4.9,6.88,3.1,2.35-1.35,3-3.91,6.42-3.72,3.08.17,3.83,2.74,5.87,3.74.71.34,2.15.31,2.59.8Z"/>
</svg>