<?xml version="1.0" encoding="UTF-8"?>
<svg id="Layer_1" data-name="Layer 1" xmlns="http://www.w3.org/2000/svg" viewBox="0 0 120 120">
  <defs>
    <style>
      .cls-1 {
        fill: #f68e4b;
      }

      .cls-2 {
        fill: #c4e7f0;
      }

      .cls-3 {
        fill: #219ed9;
        stroke: #219ed9;
        stroke-miterlimit: 10;
        stroke-width: .5px;
      }
    </style>
  </defs>
  <g>
    <path class="cls-3" d="M109.59,52.59c-.24-.61-.79-1.01-1.45-1.03-4.27.3-9.05-.39-13.26,0-.59.06-1.75.47-1.75,1.15v15.41h-12.11c-.24,0-1.14.9-1.14,1.14v12.11h-12.1c-.24,0-1.14.9-1.14,1.14v15.42h-3.31v-17.28c0-.19-.57-1.1-.74-1.33-2.72-3.63-11.89-3.4-15.81-1.88v-5.07c0-.19-.57-1.1-.74-1.33-2.72-3.63-11.89-3.4-15.81-1.88v-13.35c0-1.47-2.96-3.07-4.19-3.47-4.34-1.42-12.85-1.43-15.48,3.05-.33,14.5-.33,29.18,0,43.68,2.65,4.54,11.62,4.53,15.94,2.89.48-.18,1.83-1.08,2-1.1.13-.02,1.83.98,2.3,1.15,3.42,1.24,8.86,1.24,12.25-.05.48-.18,1.83-1.08,2-1.1.13-.02,1.83.98,2.3,1.15,4.33,1.56,9.87,1.12,14.01-.77h46.77c.86-.02,1.53-.69,1.55-1.54l-.1-47.09ZM13.98,56.32c.44-.68,3.94-1.3,4.83-1.38,1.79-.15,3.72-.02,5.46.41,2.6.66,3.54,1.39.33,2.27-2.63.72-5.63.75-8.27.09-.41-.1-2.78-.72-2.34-1.39ZM26.92,97.81c0,.95-5.03,1.73-5.89,1.77-1.06.04-7.35-.54-7.35-1.77v-4.24c4.3,1.4,8.93,1.44,13.24,0v4.24ZM26.92,89.54c0,.95-5.03,1.73-5.89,1.77-1.06.04-7.35-.54-7.35-1.77v-4.24c4.3,1.4,8.93,1.43,13.24,0v4.24ZM26.92,81.26c0,.95-5.03,1.74-5.89,1.77-1.06.04-7.35-.54-7.35-1.77v-4.24c4.28,1.42,8.96,1.42,13.24,0v4.24ZM26.92,72.98c0,.95-5.03,1.73-5.89,1.77-1.06.04-7.35-.54-7.35-1.77v-4.24c4.28,1.42,8.96,1.42,13.24,0v4.24ZM26.92,64.7c0,.95-5.03,1.73-5.89,1.77-1.06.04-7.35-.54-7.35-1.77v-4.24c4.3,1.4,8.93,1.43,13.24,0v4.24ZM30.53,72.87c.44-.69,3.94-1.3,4.83-1.38,1.79-.15,3.72-.02,5.46.41,2.6.66,3.54,1.39.33,2.27-2.63.72-5.63.75-8.27.09-.41-.1-2.78-.72-2.34-1.39ZM43.47,97.81c0,.95-5.03,1.73-5.89,1.77-1.07.04-7.36-.54-7.36-1.77v-4.24c4.3,1.4,8.93,1.44,13.24,0v4.24ZM43.47,89.54c0,.95-5.03,1.73-5.89,1.77-1.07.04-7.36-.54-7.36-1.77v-4.24c4.3,1.4,8.93,1.43,13.24,0v4.24ZM43.47,81.26c0,.95-5.03,1.74-5.89,1.77-1.07.04-7.36-.54-7.36-1.77v-4.24c4.28,1.42,8.96,1.42,13.24,0v4.24ZM47.08,81.15c.44-.69,3.94-1.3,4.83-1.38,1.79-.15,3.72-.02,5.46.41,2.6.66,3.53,1.39.33,2.27-2.63.72-5.63.75-8.27.09-.41-.11-2.78-.72-2.34-1.39ZM60.02,97.81c0,.95-5.03,1.73-5.89,1.77-1.06.04-7.36-.54-7.36-1.77v-4.24c4.3,1.4,8.94,1.44,13.24,0v4.24ZM60.02,89.54c0,.95-5.03,1.73-5.89,1.77-1.06.04-7.36-.54-7.36-1.77v-4.24c4.3,1.4,8.94,1.43,13.24,0v4.24ZM79.89,97.91h-9.93v-13.24h9.93v13.24ZM93.13,97.91h-9.93v-26.49h9.93v26.49ZM106.37,97.91h-9.93v-43.04h9.93v43.04Z"/>
    <path class="cls-3" d="M71.12,7.01C45.74-1.23,19.81,17.01,18.82,43.6c0,.26.01.53.03.8.07.89.83,1.57,1.72,1.56h0c.93-.02,1.68-.77,1.66-1.7-.02-1.59.14-3.18.31-4.75l7.31.73c1.59,2.14,2.64,4.74,4.36,6.75.15.17.36.28.59.3l12.59,1.37,2.87,6.39c-.78.94-6.32,3.52-6.4,4.35l-.38,3.81c-.09.91.57,1.72,1.48,1.81h0c.91.09,1.72-.57,1.81-1.48l.24-2.37c.04-.41,6.39-3.46,6.94-4.46.4-.72.27-1.11.04-1.82-.9-2.81-3.15-6-4.23-8.83l-1.08-.63-12.31-1.26c-.94-.85-3.91-7.01-4.74-7.09l-8.34-.83c1.09-4.92,3.41-9.71,6.47-13.68.36-.47,2.12-2.73,2.53-2.69.69.07,4.06,3.35,5.12,3.67.33,1.95-1.88,6.95.84,7.54,2.34.51,5.19.26,7.58.79l5.71,6.86c.48.45,1.16.56,1.77.34l11.15-6.01c.26-.25.34-.55.41-.89.63-2.9.29-6.42,1.04-9.36l11.09-9.11c.19-.18.31-.13.53-.06.72.26,2.59,1.7,3.29,2.24.44.34,3.09,2.52,3.07,2.78l-9.96,7c-.26.47-.16.93-.09,1.42.16,1.14,2.29,7.09,2.12,7.53l-4.31,4.67c-1.29.48-6.23-.96-8.06-.6-.43.08-6.8,3.89-7.39,4.37-.87.71-1.08,1.18-.72,2.28.4,1.22,4.88,9.65,5.68,10.67.14.18.59.69.75.71l5.45.54-.82,8.24c-.09.91.57,1.72,1.48,1.81h0c.91.09,1.72-.57,1.81-1.48l1.03-10.4c.19-1.94-6.07-1.38-7.29-1.97l-4.01-7.48c-.22-.41-.1-.91.28-1.17,1.33-.93,4.36-2.71,4.6-2.76,1.75-.32,5.7.77,7.79.74.61-.01.83-.13,1.3-.49,1.09-.84,4.27-4.46,5.2-5.66.7-.91.92-.97.74-2.24-.17-1.19-2.25-6.74-1.95-7.29l8.71-6c5.38,6.19,8.56,14.32,8.73,22.57.02.89.72,1.62,1.6,1.65h0c.96.03,1.74-.74,1.73-1.7-.19-16.47-11.52-31.52-27.19-36.61ZM73.74,12.05l-10.93,9.05c-.85,2.87-.43,6.45-1.07,9.31-.05.23-.05.45-.28.58l-8.23,4.28c-.66-.07-5.12-6.54-5.78-6.61l-7.11-.71.54-5.45c.1-.96-5.4-4.14-6.13-5.19,10.53-9.31,26.2-11.62,39.03-5.68l-.04.41Z"/>
    <rect class="cls-2" x="96.44" y="54.87" width="9.93" height="43.04"/>
    <rect class="cls-2" x="69.96" y="84.67" width="9.93" height="13.24"/>
  </g>
  <path class="cls-1" d="M109.26,112.18c.3.28.5,1.18.41,1.61-.44,2.22-4.21.84-5.47.03-1.72-1.1-2.48-2.81-4.86-2.71-3.13.13-4.42,4.18-9.07,3.84-4.24-.31-6.05-5.59-10.21-3.19-2.66,1.54-3.44,3.46-7.15,3.19-3.7-.27-5.26-4.14-8.47-3.83-2.84.27-4.26,4.25-8.88,3.83-4.35-.39-5.85-5.89-10.41-3-2.5,1.59-3.46,3.27-6.94,2.99-3.53-.28-5.08-4.02-8.09-3.84-3.12.19-4.41,4.18-9.07,3.84-3.3-.24-4.12-2.6-6.4-3.53-1.32-.54-3.26.08-3.17-2.02.1-2.51,3.71-1.32,5.08-.53,2.58,1.48,3.61,4.3,7.23,2.21,3.09-1.79,4.25-4.18,8.58-2.84,3.27,1.01,4.81,5.2,8.78,2.84,2.97-1.76,4.02-4.06,8.26-2.93,2.28.61,3.41,2.58,5.09,3.26,4.62,1.89,6.34-5.19,12.53-3.13,3.26,1.09,4.64,4.99,8.51,2.86,3.35-1.84,4.7-4.54,9.27-2.69,2.85,1.15,4.22,4.63,7.74,2.94,2.64-1.28,3.37-3.7,7.22-3.51,3.46.16,4.31,2.6,6.6,3.53.8.33,2.42.3,2.91.76Z"/>
</svg>